<svg width="27" height="27" viewBox="0 0 27 27" fill="none" xmlns="http://www.w3.org/2000/svg">
<circle cx="13.5" cy="13.5" r="13.5" fill="#E92E30"/>
<path fill-rule="evenodd" clip-rule="evenodd" d="M13.4398 11.925C13.7398 11.6451 14.0658 11.368 14.3638 11.0641C15.4378 9.97107 16.5008 8.86407 17.5718 7.77209C17.8416 7.48175 18.2433 7.35315 18.6315 7.43286C19.0197 7.51251 19.3383 7.78894 19.4718 8.16205C19.6436 8.57593 19.543 9.0528 19.2188 9.36206C18.0188 10.6041 16.8152 11.8424 15.6078 13.0771L15.0678 13.6331L15.7439 14.3331C16.8952 15.5171 18.0468 16.701 19.1989 17.8851C19.5176 18.1812 19.6347 18.6358 19.4989 19.0491C19.3895 19.4528 19.0567 19.7571 18.6449 19.8301C18.2638 19.9244 17.8616 19.805 17.5938 19.5181C16.4868 18.386 15.3869 17.2461 14.2788 16.118C14.0118 15.8461 13.7238 15.5941 13.4558 15.3431C13.3158 15.4761 13.1399 15.631 12.9768 15.7981C11.8208 16.9834 10.6665 18.17 9.51382 19.3581C9.34659 19.5613 9.12857 19.7165 8.88181 19.808C8.38138 19.9645 7.83853 19.762 7.56284 19.3161C7.28909 18.8785 7.34628 18.3112 7.70181 17.9371C8.27078 17.3371 8.84781 16.7541 9.42178 16.1631C10.2098 15.3524 10.9981 14.5427 11.7868 13.7341C11.8588 13.6611 11.8607 13.623 11.7868 13.5461C10.6988 12.4334 9.61343 11.3184 8.53079 10.201C8.26779 9.93005 8.00479 9.65808 7.73978 9.3891C7.51846 9.17401 7.39359 8.8786 7.39359 8.57007C7.39359 8.26154 7.51846 7.96613 7.73978 7.7511C7.95731 7.53516 8.25265 7.41608 8.55905 7.42078C8.86551 7.42548 9.15707 7.55359 9.36783 7.77606C10.4987 8.93506 11.6237 10.1011 12.7548 11.2601C12.9798 11.4961 13.2308 11.7241 13.4398 11.925Z" fill="white"/>
</svg>
