<svg width="19" height="12" viewBox="0 0 19 12" fill="none" xmlns="http://www.w3.org/2000/svg">
<path fill-rule="evenodd" clip-rule="evenodd" d="M3.49875 5.14301C4.44489 5.14189 5.21164 4.37515 5.21274 3.429C5.2117 2.48297 4.44501 1.71617 3.49887 1.715C2.55264 1.71603 1.78583 2.48279 1.78473 3.429C1.78577 4.37503 2.55246 5.14183 3.4986 5.14301H3.49875ZM15.4987 5.14301C16.4449 5.14189 17.2116 4.37515 17.2127 3.429C17.2117 2.48297 16.445 1.71617 15.4989 1.715C14.5526 1.71603 13.7858 2.48279 13.7847 3.429C13.7858 4.37503 14.5525 5.14183 15.4986 5.14301H15.4987ZM16.3557 6H14.6417C14.1887 5.99997 13.7542 6.17981 13.4337 6.5C14.5343 7.09879 15.2821 8.18781 15.4457 9.42999H17.2137C17.4411 9.43027 17.6592 9.34006 17.82 9.17929C17.9808 9.01851 18.071 8.80037 18.0707 8.573V7.716C18.0707 6.76906 17.3037 6.0011 16.3567 6H16.3557ZM9.49875 6C11.1556 6 12.4987 4.65686 12.4987 3C12.4987 1.34314 11.1556 0 9.49875 0C7.84189 0 6.49875 1.34314 6.49875 3C6.49875 4.65686 7.84189 6 9.49875 6ZM11.5557 6.85699H11.3337C10.7622 7.13652 10.1349 7.28319 9.49875 7.286C8.86258 7.28287 8.23535 7.13623 7.66373 6.85699H7.44174C5.73801 6.85811 4.3573 8.23927 4.35672 9.94299V10.714C4.35672 11.4238 4.93189 11.9995 5.64172 12H13.3557C14.066 12 14.6417 11.4242 14.6417 10.714V9.94299C14.6417 8.24026 13.2615 6.85866 11.5577 6.85699H11.5557ZM5.56473 6.5C5.24426 6.17981 4.80975 5.99997 4.35672 6H2.64172C1.69559 6.0011 0.928834 6.76784 0.927735 7.714V8.571C0.92746 8.79831 1.01764 9.01645 1.17841 9.17725C1.33917 9.33803 1.55731 9.42825 1.78467 9.42801L3.54974 9.42799C3.71616 8.18655 4.46466 7.09891 5.56473 6.5Z" fill="white"/>
</svg>
