<svg width="38" height="40" viewBox="0 0 38 40" fill="none" xmlns="http://www.w3.org/2000/svg">
<path fill-rule="evenodd" clip-rule="evenodd" d="M8.72665 5.12488C8.56287 3.63348 9.22922 2.17212 10.4627 1.31787C11.7183 0.496765 13.3228 0.429565 14.6427 1.14288C15.2363 1.60187 15.9039 1.9563 16.6167 2.19086C18.3587 2.47986 19.9917 0.231873 21.6017 0.9599C22.2887 1.27087 22.6777 2.04987 23.3697 2.34888C24.2557 2.73187 25.2387 2.20489 26.1436 1.86786C28.0987 1.14087 30.5866 1.96088 31.0526 4.15088C31.2867 5.25085 31.0197 5.73389 31.7747 6.75085C32.4427 7.65088 33.4107 8.28186 33.7697 9.39886C34.2896 11.0159 33.2527 12.7759 33.5697 14.4449C33.9637 16.5529 36.4167 18.1179 36.0617 20.2329C35.8643 20.8375 35.6974 21.4515 35.5617 22.0729C35.4557 23.7269 37.4127 24.7979 37.7927 26.4109C37.9214 27.1208 37.7425 27.852 37.3006 28.4223C36.8586 28.9926 36.1952 29.3483 35.4757 29.4009L32.9317 29.9149L9.17068 7.1709L8.72665 5.12488Z" fill="#80CF00"/>
<path fill-rule="evenodd" clip-rule="evenodd" d="M35.4666 29.4028L34.6996 29.5578C35.3676 28.9562 35.6712 28.0483 35.4996 27.1658C35.1076 25.5058 33.0946 24.4028 33.1996 22.7008C33.3398 22.0615 33.5124 21.4296 33.7166 20.8078C34.0816 18.6308 31.5566 17.0188 31.1516 14.8498C30.8306 13.1318 31.8976 11.3208 31.3626 9.6568C30.9936 8.50683 29.9976 7.85681 29.3106 6.93079C28.5346 5.88281 28.8106 5.38281 28.5676 4.25378C28.3114 3.08008 27.4257 2.14514 26.2676 1.82581C28.2016 1.1778 30.5976 2.00879 31.0526 4.15179C31.2866 5.25183 31.0206 5.7348 31.7746 6.75183C32.4426 7.65179 33.4106 8.28284 33.7696 9.39978C34.2896 11.0178 33.2526 12.7768 33.5696 14.4458C33.9636 16.5548 36.4165 18.1198 36.0616 20.2348C35.9615 20.8638 35.5995 21.4348 35.5616 22.0748C35.4565 23.7278 37.4126 24.7998 37.7925 26.4118C37.9209 27.1217 37.7419 27.8527 37.3 28.4229C36.8582 28.9932 36.195 29.3489 35.4755 29.4018L35.4666 29.4028Z" fill="#6DB000"/>
<path fill-rule="evenodd" clip-rule="evenodd" d="M24.3973 24.5599L32.0553 32.2169L31.3653 19.9099C31.2954 18.6592 30.2969 17.6607 29.0463 17.5908L16.7393 16.9009L24.3973 24.5599Z" fill="#FFC143"/>
<path fill-rule="evenodd" clip-rule="evenodd" d="M32.052 32.2179L30.232 30.3979L29.612 19.3459C29.5741 18.6534 29.245 18.0093 28.7061 17.5729L29.044 17.5919C30.2942 17.6621 31.2923 18.6598 31.363 19.9099L32.052 32.2179Z" fill="#EEB900"/>
<path fill-rule="evenodd" clip-rule="evenodd" d="M24.6402 14.4829C24.6387 18.8874 21.0692 22.4545 16.6674 22.4529C12.2657 22.4514 8.69867 18.8819 8.7002 14.4802C8.70172 10.0784 12.2712 6.51141 16.6729 6.51294C21.0736 6.51447 24.6402 10.0823 24.6402 14.4829Z" fill="#F72C2C"/>
<path fill-rule="evenodd" clip-rule="evenodd" d="M24.6386 14.4828C24.6387 17.5055 22.9296 20.2675 20.2253 21.616C17.5211 22.9645 14.2867 22.6677 11.873 20.8494C15.5731 21.989 19.557 20.3055 21.3186 16.8579C23.0802 13.4103 22.1102 9.1955 19.0186 6.86487C22.3595 7.89746 24.6381 10.986 24.6386 14.4828Z" fill="#E32929"/>
<path fill-rule="evenodd" clip-rule="evenodd" d="M36.4416 33.6718C36.9056 33.1851 37.0438 32.4728 36.7956 31.8478C36.2956 30.6408 37.0495 29.3738 35.8045 28.2028C34.2715 26.7608 32.7795 28.3478 31.2476 26.9028C29.7155 25.4578 31.2086 23.8778 29.6756 22.4378C28.1425 20.9978 26.6516 22.5828 25.1186 21.1378C23.5855 19.6928 25.0775 18.1098 23.5446 16.6688C22.0116 15.2278 20.5196 16.8138 18.9865 15.3688C17.4536 13.9238 18.9456 12.3408 17.4116 10.8998C15.8776 9.4588 14.3876 11.0448 12.8535 9.59979C11.3195 8.15485 12.8116 6.57184 11.2786 5.12982C10.0326 3.9588 8.81454 4.78583 7.57855 4.36481C6.93848 4.15552 6.23511 4.33881 5.77856 4.8338L5.00555 5.65582C3.81085 6.92694 3.87262 8.9259 5.14355 10.1209L31.2025 34.6208C32.4737 35.8156 34.4726 35.7537 35.6676 34.4829L36.4416 33.6718Z" fill="#D1F29C"/>
<path fill-rule="evenodd" clip-rule="evenodd" d="M36.4425 33.6729L35.6685 34.4949C35.0945 35.1054 34.3015 35.4628 33.4639 35.4885C32.6263 35.5142 31.8129 35.2061 31.2025 34.6319L30.3125 33.7949C31.4659 34.1526 32.7222 33.8215 33.5495 32.9419L34.3235 32.1189C34.7891 31.6332 34.929 30.9206 34.6815 30.2949C34.3095 29.3949 34.6365 28.4539 34.3015 27.5488C34.8675 27.5735 35.4043 27.8069 35.8085 28.2039C37.0535 29.3749 36.3035 30.6418 36.7995 31.8489C37.0473 32.4744 36.9078 33.1869 36.4425 33.6729H36.4425Z" fill="#BDDB82"/>
<path fill-rule="evenodd" clip-rule="evenodd" d="M0.255859 6.5658V37.6778C0.255859 38.794 1.16071 39.6988 2.27686 39.6988H34.5558C35.38 39.6982 36.1212 39.1971 36.429 38.4327C36.7368 37.6682 36.5496 36.7934 35.9559 36.2218L3.67987 5.11078C3.09625 4.54791 2.2327 4.38831 1.48645 4.70544C0.740204 5.02252 0.255737 5.75494 0.255859 6.5658Z" fill="#F78E3C"/>
<path fill-rule="evenodd" clip-rule="evenodd" d="M34.5558 39.6989H33.8259C33.9549 39.0433 33.7376 38.3675 33.2509 37.9099L1.60886 7.41187C1.24792 7.05634 0.762482 6.85577 0.255859 6.85284V6.56586C0.255859 5.75464 0.740479 5.02234 1.48679 4.70532C2.23309 4.38837 3.09659 4.5481 3.68011 5.11108L35.9559 36.2228C36.5496 36.7944 36.7368 37.6692 36.429 38.4337C36.1212 39.1982 35.38 39.6992 34.5558 39.6998V39.6989Z" fill="#E8782D"/>
<path fill-rule="evenodd" clip-rule="evenodd" d="M2.33215 13.1779C2.09641 13.1755 1.88477 13.0328 1.79422 12.8151C1.70364 12.5974 1.75162 12.3467 1.91617 12.1779L4.09216 10.0018C4.23816 9.841 4.46085 9.77356 4.67154 9.82642C4.88223 9.87927 5.04675 10.0438 5.09958 10.2545C5.1524 10.4651 5.08499 10.6879 4.92416 10.8339L2.75116 13.0048C2.64087 13.1152 2.49118 13.1771 2.33517 13.1768L2.33215 13.1779Z" fill="#CE631B"/>
<path fill-rule="evenodd" clip-rule="evenodd" d="M3.41946 21.8098C3.18326 21.8085 2.97079 21.6658 2.8801 21.4477C2.78934 21.2296 2.83795 20.9784 3.00345 20.8098L9.40848 14.4048C9.64114 14.1936 9.99863 14.2023 10.2209 14.4244C10.4431 14.6467 10.4517 15.0042 10.2404 15.2368L3.83548 21.6418C3.7251 21.7521 3.57547 21.814 3.41946 21.8138V21.8098Z" fill="#CE631B"/>
<path fill-rule="evenodd" clip-rule="evenodd" d="M4.41907 30.5338C4.18332 30.5314 3.97168 30.3887 3.88113 30.1711C3.79059 29.9534 3.83856 29.7027 4.00308 29.5338L14.0611 19.4768C14.2071 19.316 14.4297 19.2485 14.6404 19.3014C14.8511 19.3542 15.0157 19.5187 15.0685 19.7294C15.1213 19.9401 15.0539 20.1628 14.8931 20.3088L4.83508 30.3608C4.72495 30.4715 4.57523 30.5338 4.41907 30.5338Z" fill="#CE631B"/>
<path fill-rule="evenodd" clip-rule="evenodd" d="M8.80676 35.8669C8.57101 35.8646 8.35938 35.7219 8.26883 35.5042C8.17828 35.2865 8.22626 35.0358 8.39078 34.8669L18.8808 24.3769C19.1105 24.1472 19.483 24.1472 19.7128 24.3769C19.9425 24.6066 19.9425 24.9792 19.7128 25.2089L9.22278 35.6989C9.11249 35.8093 8.96277 35.8712 8.80676 35.8709V35.8669Z" fill="#CE631B"/>
<path fill-rule="evenodd" clip-rule="evenodd" d="M17.4367 36.9588C17.2009 36.9565 16.9893 36.8138 16.8987 36.5961C16.8081 36.3784 16.8561 36.1277 17.0207 35.9588L24.0507 28.9288C24.2834 28.7176 24.6408 28.7262 24.8631 28.9484C25.0852 29.1706 25.0939 29.5281 24.8827 29.7608L17.8527 36.7908C17.7417 36.8997 17.5921 36.9601 17.4367 36.9588Z" fill="#CE631B"/>
<path fill-rule="evenodd" clip-rule="evenodd" d="M26.9601 37.1588C26.7243 37.1565 26.5127 37.0138 26.4221 36.7961C26.3316 36.5784 26.3796 36.3278 26.5441 36.1588L29.1261 33.5768C29.3587 33.3657 29.7162 33.3743 29.9384 33.5965C30.1607 33.8187 30.1693 34.1762 29.9581 34.4089L27.3761 36.9908C27.2651 37.0997 27.1155 37.1602 26.9601 37.1588Z" fill="#CE631B"/>
</svg>
