<svg width="374" height="115" viewBox="0 0 374 115" fill="none" xmlns="http://www.w3.org/2000/svg">
<mask id="mask0_751_20" style="mask-type:luminance" maskUnits="userSpaceOnUse" x="-1" y="0" width="376" height="129">
<rect x="-0.0371094" y="0.612061" width="374.825" height="128.388" fill="white"/>
</mask>
<g mask="url(#mask0_751_20)">
<path fill-rule="evenodd" clip-rule="evenodd" d="M283.074 116.412C287.337 109.175 291.355 99.9971 287.231 96.9581C275.69 88.3851 275.69 116.741 263.82 102.564C257.556 95.3101 244.037 55.4131 229.859 66.9541C217.659 76.8461 241.399 97.9481 231.837 106.854C223.264 115.097 217.659 88.0601 210.075 89.3791C201.175 90.6981 201.175 111.471 191.281 108.173C179.74 104.546 196.886 78.8281 183.368 75.8601C168.201 72.2331 167.868 97.9511 159.628 103.227C157.979 101.579 157.65 99.6001 156.99 96.9621C155.012 90.0381 148.747 55.4171 136.877 61.6821C122.699 69.2651 139.515 91.6821 138.525 101.582C137.206 116.419 117.753 87.7341 113.466 87.4041C100.866 86.5451 117.623 108.827 123.752 116.42L283.074 116.412Z" fill="#90CCD6"/>
<path fill-rule="evenodd" clip-rule="evenodd" d="M18.5597 6.14013C13.9277 6.15313 9.07269 7.08513 5.44672 10.1551C2.55444 12.7637 0.713013 16.3378 0.2677 20.2071C-0.0302124 22.3587 -0.0778809 24.5376 0.125732 26.7001C0.269104 29.1164 0.904419 31.478 1.99274 33.6401C4.3407 37.7652 8.23267 40.7872 12.8107 42.0401C17.0193 43.3672 21.5473 43.2755 25.6987 41.7791C28.6686 40.5871 31.2227 38.5487 33.0437 35.9171C36.6688 30.5356 37.6615 23.8018 35.7437 17.6031C34.8486 14.6121 33.1343 11.9314 30.7947 9.86413C28.1774 7.68636 24.939 6.39137 21.5417 6.16412C20.5499 6.08579 19.554 6.07543 18.5608 6.13313C18.1607 6.15513 18.1607 6.77312 18.5607 6.75113C22.0485 6.46574 25.5403 7.25027 28.5707 9.00013C31.1163 10.6045 33.1281 12.9287 34.3507 15.6781C36.8292 21.3752 36.6348 27.8812 33.8207 33.4201C32.4648 36.1369 30.3864 38.4274 27.8137 40.0401C24.505 41.9336 20.6693 42.6971 16.8877 42.2151C12.2106 41.8247 7.84125 39.7246 4.61475 36.3161C3.02014 34.5439 1.87402 32.415 1.27271 30.1081C0.761963 27.9396 0.544373 25.7125 0.625732 23.4861C0.542175 19.6068 1.70166 15.8024 3.93469 12.6291C6.51874 9.27013 10.5347 7.57212 14.6407 7.00813C15.9404 6.83783 17.2499 6.75431 18.5607 6.75813C18.7314 6.75812 18.8697 6.61978 18.8697 6.44912C18.8697 6.27847 18.7314 6.14012 18.5607 6.14013" fill="#003849"/>
<path fill-rule="evenodd" clip-rule="evenodd" d="M7.05408 9.93008C9.10608 11.1431 11.7401 11.7231 13.4311 13.4801C15.475 15.6031 12.8981 17.9341 11.2551 19.2801C10.3149 19.9488 9.51794 20.7988 8.91107 21.7801C8.35876 22.8786 8.23065 24.1421 8.55109 25.3291C8.88348 26.3581 9.50903 27.2676 10.3511 27.9461C11.2156 28.5794 11.9568 29.3657 12.5381 30.2661C13.2841 31.7431 12.548 33.5111 11.6381 34.7351C10.4433 36.1929 8.97034 37.3983 7.30505 38.2811C7.17065 38.3729 7.13013 38.5529 7.21222 38.6935C7.29431 38.834 7.47113 38.8871 7.61707 38.8151C10.178 37.3151 13.282 35.0431 13.4551 31.7801C13.5941 29.1621 11.04 28.2091 9.72906 26.3801C8.94861 25.2335 8.77625 23.7783 9.26709 22.4811C9.83582 21.3448 10.6905 20.376 11.7471 19.6701C13.3951 18.3251 15.7911 16.1131 14.436 13.7771C13.66 12.692 12.5934 11.848 11.3591 11.3421C10.0411 10.6721 8.64508 10.1501 7.37006 9.39608C7.22382 9.32131 7.04462 9.37363 6.96155 9.51535C6.87848 9.65707 6.92035 9.83899 7.05707 9.93008" fill="#003849"/>
<path fill-rule="evenodd" clip-rule="evenodd" d="M19.2072 6.74509C18.4512 9.04509 17.9391 11.8681 18.8622 14.1921C19.7402 16.4031 21.9172 17.1051 24.1061 17.2511C25.0022 17.2225 25.8972 17.3335 26.7592 17.5801C27.6882 17.9561 27.7012 18.9441 27.5502 19.8081C27.2621 21.4611 26.3372 22.8291 25.7881 24.3871C25.2737 25.9061 25.5192 27.5798 26.4482 28.8871C28.3052 31.7601 31.8192 31.5711 34.8262 31.9131C35.2212 31.9581 35.2172 31.3391 34.8262 31.2951C32.1772 30.9951 28.8732 31.2281 27.1262 28.7901C26.573 28.0613 26.2237 27.1985 26.1141 26.2901C26.0871 25.4909 26.2589 24.6975 26.6142 23.9811C27.3248 22.6515 27.8525 21.232 28.1832 19.7611C28.3896 18.9612 28.2114 18.1108 27.7012 17.4611C27.1435 17.0004 26.4445 16.7455 25.7212 16.7391C23.7592 16.5321 21.4582 16.7291 20.0572 15.0391C18.2812 12.8931 19.0192 9.30909 19.8082 6.91309C19.9332 6.53409 19.3362 6.37209 19.2082 6.74909" fill="#003849"/>
<path fill-rule="evenodd" clip-rule="evenodd" d="M15.3747 42.1641C17.1718 40.2306 18.0536 37.6193 17.7967 34.9921C17.4353 33.0573 16.8723 31.1656 16.1167 29.3481C15.4507 27.7453 15.243 25.9891 15.5167 24.2751C15.8807 22.8861 17.6847 21.6111 19.0667 22.5241C20.2327 23.2951 20.4437 25.1871 20.5967 26.4441C20.7967 28.0591 20.7967 29.6891 20.9847 31.3061C21.0685 31.8695 21.1823 32.428 21.3257 32.9791C21.5347 33.9211 21.3877 34.9201 21.6257 35.8621C21.7477 36.3301 22.0597 37.0621 22.5977 37.1811C23.0747 37.2811 23.4067 36.8451 23.6197 36.4871C23.9919 35.7681 24.3176 35.0259 24.5947 34.2652C24.7341 33.9146 24.9048 33.5772 25.1047 33.2571C25.3707 32.8571 25.5837 32.8091 26.0807 32.7841C28.8017 32.6511 29.7107 35.7001 30.5497 37.7411C30.6987 38.1041 31.2977 37.9411 31.1497 37.5771C30.4177 35.7961 29.6947 33.3241 27.7787 32.4621C26.9615 32.0753 26.0247 32.0264 25.1717 32.3261C24.6762 32.6972 24.3111 33.2156 24.1287 33.8071C23.8287 34.4871 23.5857 35.1961 23.2557 35.8631C23.0287 36.3221 22.8127 36.8631 22.4477 36.2341C22.0932 35.2886 21.9357 34.2807 21.9847 33.2721C21.9207 32.6721 21.7047 32.1011 21.6247 31.4971C21.4067 29.8411 21.4197 28.1621 21.2247 26.5041C21.0597 25.1111 20.8397 23.4161 19.8247 22.3541C18.7025 21.382 17.0281 21.4113 15.9407 22.4221C14.6497 23.5081 14.6407 25.3921 14.8777 26.9221C15.2944 28.8117 15.8701 30.6626 16.5987 32.4551C17.119 33.9099 17.3182 35.4601 17.1827 36.9991C16.9328 38.7648 16.1507 40.4123 14.9407 41.7221C14.6807 42.0221 15.1157 42.4601 15.3787 42.1601" fill="#003849"/>
<path fill-rule="evenodd" clip-rule="evenodd" d="M5.54291 13.1611C5.87891 13.4981 6.18591 13.8611 6.5509 14.1701C6.61035 14.2262 6.68823 14.2586 6.76996 14.2611C6.85193 14.26 6.93036 14.2274 6.98895 14.1701C7.10754 14.0482 7.10754 13.854 6.98895 13.7321C6.6239 13.4261 6.31592 13.0601 5.98096 12.7231C5.85999 12.6025 5.66412 12.6028 5.54352 12.7237C5.42285 12.8446 5.42303 13.0404 5.54395 13.1611" fill="#003849"/>
<path fill-rule="evenodd" clip-rule="evenodd" d="M10.9003 16.3171L10.2072 17.0101C10.15 17.0687 10.1174 17.1471 10.1162 17.2291C10.1162 17.3997 10.2546 17.5381 10.4252 17.5381C10.5068 17.5363 10.5846 17.5038 10.6432 17.4471L11.3372 16.7541C11.3942 16.6953 11.4263 16.6169 11.4272 16.5351C11.4275 16.453 11.395 16.3743 11.337 16.3163C11.2791 16.2583 11.2003 16.2258 11.1182 16.2261C11.0364 16.2277 10.9582 16.2602 10.8992 16.3171" fill="#003849"/>
<path fill-rule="evenodd" clip-rule="evenodd" d="M3.90368 20.0354C4.03064 20.1611 4.15686 20.2877 4.28241 20.4154C4.3413 20.4725 4.41989 20.5048 4.50183 20.5056C4.54324 20.5075 4.58433 20.4986 4.62109 20.4795C4.65937 20.4669 4.6938 20.4448 4.72132 20.4154C4.77929 20.357 4.81201 20.2781 4.8125 20.1958C4.81097 20.1137 4.77844 20.0353 4.72132 19.9763L4.34253 19.5963C4.28351 19.5395 4.20505 19.5072 4.1231 19.5061C4.08176 19.5042 4.04067 19.5132 4.00391 19.5322C3.96569 19.5449 3.93126 19.567 3.90368 19.5963C3.84577 19.6548 3.81305 19.7336 3.8125 19.8159C3.81409 19.898 3.84669 19.9764 3.90368 20.0354Z" fill="#003849"/>
<path fill-rule="evenodd" clip-rule="evenodd" d="M5.68341 26.2151L5.65039 26.2591L5.69836 26.1971C5.53839 26.4042 5.35254 26.5901 5.14539 26.7501L5.20441 26.7051L5.1604 26.7391C5.12531 26.7582 5.0954 26.7857 5.07336 26.8191C5.04663 26.849 5.02771 26.8851 5.01837 26.9241C4.99713 27.0044 5.00824 27.0899 5.04938 27.1621C5.09021 27.2317 5.15656 27.2826 5.23438 27.3041C5.31458 27.3273 5.40082 27.3161 5.47241 27.2731C5.75934 27.0688 6.01013 26.818 6.21436 26.5311C6.25616 26.4591 6.26733 26.3734 6.24536 26.2931C6.224 26.2147 6.17358 26.1475 6.10437 26.1051C6.03235 26.0635 5.94666 26.0524 5.86639 26.0741L5.79236 26.1051C5.74664 26.1321 5.70843 26.1703 5.6814 26.2161" fill="#003849"/>
<path fill-rule="evenodd" clip-rule="evenodd" d="M6.58038 34.061H8.47241C8.64264 34.0601 8.78033 33.8365 8.78033 33.561C8.78033 33.2856 8.64264 33.062 8.47241 33.061H6.58038C6.41016 33.062 6.27246 33.2856 6.27246 33.561C6.27246 33.8365 6.41016 34.0601 6.58038 34.061Z" fill="#003849"/>
<path fill-rule="evenodd" clip-rule="evenodd" d="M17.7691 26.843C18.0468 26.5325 18.3416 26.2377 18.6521 25.96C18.7102 25.9019 18.7429 25.8232 18.7431 25.741C18.7424 25.659 18.7097 25.5804 18.6521 25.522C18.5939 25.4641 18.5153 25.4314 18.4331 25.431C18.3519 25.4357 18.2747 25.4678 18.2141 25.522C17.9038 25.7999 17.609 26.0947 17.3311 26.405C17.2101 26.5257 17.21 26.7216 17.3306 26.8425C17.4513 26.9635 17.6472 26.9637 17.7681 26.843" fill="#003849"/>
<path fill-rule="evenodd" clip-rule="evenodd" d="M18.0263 31.5561C18.4177 31.7417 18.8217 31.8994 19.2353 32.0281C19.3997 32.0723 19.5692 31.976 19.6153 31.8121C19.6567 31.648 19.5615 31.4805 19.3994 31.4321C19.2133 31.3701 19.0263 31.3071 18.8423 31.2391L18.7113 31.1891L18.6303 31.1561C18.6123 31.1491 18.5473 31.1271 18.6234 31.1561C18.5261 31.1178 18.4313 31.0737 18.3393 31.0241C18.1919 30.9379 18.0025 30.9876 17.9163 31.1351C17.8301 31.2825 17.8799 31.4719 18.0273 31.5581" fill="#003849"/>
<path fill-rule="evenodd" clip-rule="evenodd" d="M19.4291 38.6361C19.2945 38.9051 19.1841 39.1851 19.0495 39.4551C19.0096 39.5278 18.9986 39.6127 19.0185 39.6931C19.0407 39.7706 19.0916 39.8368 19.161 39.8781C19.2336 39.9219 19.3209 39.9345 19.403 39.9131C19.4815 39.8927 19.5485 39.8415 19.5887 39.7711C19.7232 39.5011 19.8336 39.2211 19.9682 38.9521C20.0079 38.8794 20.019 38.7946 19.9993 38.7141C19.9769 38.6368 19.9259 38.5707 19.8567 38.5291C19.7844 38.4876 19.6984 38.4764 19.6178 38.4981C19.5395 38.5193 19.4728 38.5703 19.4321 38.6401" fill="#003849"/>
<path fill-rule="evenodd" clip-rule="evenodd" d="M25.6649 38.4391C25.9989 38.5591 26.3469 38.6372 26.6739 38.7775C26.7542 38.801 26.8399 38.7891 26.9119 38.7443C26.9827 38.7001 27.0343 38.6275 27.0551 38.5425C27.0759 38.4575 27.0643 38.3672 27.0229 38.2913C26.9789 38.2199 26.9137 38.1663 26.8379 38.1392C26.5109 37.999 26.1629 37.9251 25.8299 37.8008C25.6652 37.7535 25.4955 37.8565 25.4489 38.0321C25.4081 38.2078 25.5031 38.3868 25.6649 38.4391" fill="#003849"/>
<path fill-rule="evenodd" clip-rule="evenodd" d="M32.9053 26.4681C32.4818 26.9513 32.1552 27.5115 31.9433 28.1181C31.8992 28.2826 31.9954 28.4519 32.1594 28.4981C32.3236 28.5388 32.4909 28.4433 32.5393 28.2811C32.5613 28.2151 32.5853 28.1481 32.6103 28.0811L32.6303 28.0321C32.6623 27.9541 32.6143 28.0661 32.6303 28.0221L32.6733 27.9271C32.7333 27.7971 32.8013 27.6711 32.8733 27.5481C32.9453 27.4251 33.0193 27.3151 33.0993 27.2031L33.1603 27.1201L33.1833 27.0901C33.1613 27.1191 33.1953 27.0751 33.1993 27.0711C33.2443 27.0141 33.2903 26.9581 33.3373 26.9031C33.4583 26.7824 33.4585 26.5866 33.3378 26.4656C33.2172 26.3447 33.0212 26.3444 32.9003 26.4651" fill="#003849"/>
<path fill-rule="evenodd" clip-rule="evenodd" d="M29.8889 22.533C30.1769 22.6516 30.4716 22.7479 30.7709 22.8212C30.9366 22.873 31.1076 22.7614 31.1529 22.5718C31.1982 22.3823 31.1006 22.1867 30.9349 22.1349C30.6356 22.0616 30.3409 21.9653 30.0529 21.8467C29.9727 21.8212 29.8868 21.834 29.8149 21.8821C29.7459 21.9297 29.6952 22.0052 29.6729 22.0938C29.6512 22.1856 29.6624 22.2835 29.7039 22.366C29.748 22.4422 29.8131 22.4994 29.8889 22.5284" fill="#003849"/>
<path fill-rule="evenodd" clip-rule="evenodd" d="M30.3425 14.1841C30.2104 14.577 30.1134 14.9782 30.0525 15.3841C30.0303 15.4647 30.0435 15.5495 30.0893 15.6221C30.1614 15.7297 30.3007 15.7891 30.4427 15.7729C30.5848 15.7568 30.7018 15.6682 30.7396 15.5481C30.8009 15.1423 30.8979 14.7411 31.0297 14.3481C31.0805 14.1837 30.9697 14.0143 30.7811 13.9681C30.5922 13.9268 30.3994 14.022 30.3437 14.1841" fill="#003849"/>
<path fill-rule="evenodd" clip-rule="evenodd" d="M23.1955 11.882C23.5603 12.1158 23.9394 12.3265 24.3304 12.513C24.4779 12.5992 24.6673 12.5495 24.7535 12.4021C24.8396 12.2546 24.7899 12.0652 24.6425 11.979C24.2512 11.7929 23.8721 11.5822 23.5074 11.348C23.3598 11.2635 23.1716 11.3129 23.0845 11.459C23.0027 11.6071 23.0516 11.7932 23.1955 11.882Z" fill="#003849"/>
<path fill-rule="evenodd" clip-rule="evenodd" d="M63.4377 71.3141C61.7448 69.4659 59.3705 68.3891 56.8647 68.3331C54.3306 68.3318 52.0386 69.8383 51.0347 72.1651C48.8347 76.7141 49.8297 83.2901 53.9237 86.4651C57.8077 89.4801 63.4407 89.1101 67.7987 87.4231C70.303 86.4763 72.4178 84.7177 73.8057 82.4281C75.2429 80.1504 75.8569 77.4493 75.5457 74.7741C75.0995 71.9839 73.0931 69.6967 70.3847 68.8911C67.7457 68.1111 64.5436 68.8441 63.0746 71.3121C63.0027 71.4581 63.0558 71.6349 63.1963 71.717C63.3368 71.7991 63.5169 71.7585 63.6087 71.6241C64.8797 69.4891 67.6087 68.8391 69.9087 69.4031C72.2506 69.9812 74.1036 71.7693 74.7647 74.0891C75.2924 76.5044 74.9376 79.0288 73.7647 81.2051C72.6868 83.427 70.9095 85.2338 68.7057 86.3481C64.8837 88.2751 59.6057 88.8911 55.7057 86.8731C51.3307 84.6111 49.7817 79.0731 50.8617 74.4971C51.4897 71.8361 53.1747 69.3201 56.0807 68.9871C58.6905 68.7806 61.2477 69.8009 62.9987 71.7471C63.2677 72.0411 63.7037 71.6031 63.4367 71.3091" fill="#003849"/>
<path fill-rule="evenodd" clip-rule="evenodd" d="M63.5358 71.1671C63.7117 68.3311 63.8118 63.8611 67.2698 63.0561C67.6567 62.9651 67.4938 62.3701 67.1057 62.4561C63.3168 63.3381 63.1138 68.0261 62.9177 71.1631C62.8928 71.5631 63.5107 71.5631 63.5358 71.1631" fill="#003849"/>
<path fill-rule="evenodd" clip-rule="evenodd" d="M63.8866 67.1061C63.9542 66.2511 63.6777 65.4045 63.1187 64.7541C62.6482 64.0258 61.9211 63.5011 61.0816 63.2841C60.6602 63.2379 60.238 63.3644 59.9114 63.6348C59.5848 63.9053 59.3818 64.2964 59.3486 64.7191C59.3563 65.6695 59.9008 66.5338 60.7546 66.9511C61.6135 67.5862 62.7214 67.7796 63.7446 67.4731C63.8908 67.386 63.9402 67.1978 63.8557 67.0501C63.7668 66.9062 63.5807 66.8574 63.4326 66.9391C63.3113 66.9806 63.1854 67.0075 63.0576 67.0191C62.8906 67.0286 62.723 67.0206 62.5576 66.9951C62.1526 66.9274 61.761 66.7954 61.3976 66.6041C60.7866 66.2871 60.0526 65.7321 59.9636 65.0361C59.942 64.7172 60.0464 64.4026 60.2546 64.1601C60.3348 64.0606 60.4377 63.9817 60.5546 63.9301C60.6595 63.8851 60.7742 63.8679 60.8876 63.8801C60.9046 63.8801 60.9876 63.8891 60.9656 63.8861L61.0457 63.9021C61.1234 63.9205 61.1999 63.9439 61.2747 63.9721C61.4143 64.0321 61.5482 64.1048 61.6746 64.1891C61.9752 64.394 62.2447 64.6412 62.4746 64.9231C62.7393 65.2366 62.9563 65.5874 63.1187 65.9641C63.1906 66.1408 63.2455 66.324 63.2827 66.5111C63.2973 66.5855 63.3047 66.6612 63.3046 66.7371C63.3046 66.7791 63.3046 66.8201 63.3046 66.8611C63.3046 66.8761 63.3046 66.8911 63.3046 66.9071C63.2976 67.0071 63.3156 66.8491 63.3046 66.9431C63.2644 67.107 63.3592 67.2738 63.5206 67.3231C63.685 67.3667 63.854 67.2706 63.9006 67.1071" fill="#003849"/>
<path fill-rule="evenodd" clip-rule="evenodd" d="M60.8092 65.1101C61.5617 65.9429 62.3997 66.6944 63.3092 67.3521C63.4567 67.4382 63.6461 67.3885 63.7322 67.2411C63.8184 67.0936 63.7687 66.9043 63.6212 66.8181C62.7567 66.1882 61.9609 65.4689 61.2472 64.6721C61.1249 64.5598 60.9358 64.5638 60.8184 64.6813C60.7009 64.7987 60.6969 64.9878 60.8092 65.1101" fill="#003849"/>
<path fill-rule="evenodd" clip-rule="evenodd" d="M55.949 70.8691C55.0982 71.1499 54.3614 71.699 53.849 72.4341C53.3757 73.1868 53.0825 74.0385 52.9921 74.9231C52.9534 75.0868 53.0476 75.2526 53.208 75.3031C53.3727 75.3473 53.5424 75.2511 53.5891 75.0871C53.6678 74.2874 53.9214 73.5148 54.332 72.8241C54.7581 72.1846 55.3856 71.7058 56.1151 71.4641C56.488 71.3331 56.328 70.7351 55.9511 70.8641" fill="#003849"/>
<path fill-rule="evenodd" clip-rule="evenodd" d="M245.793 87.398C247.898 93.6174 250.026 99.829 252.177 106.033C254.151 111.733 256.135 117.433 258.185 123.105C258.871 125.005 259.552 126.905 260.301 128.778C260.329 128.869 260.396 128.942 260.484 128.978C260.572 129.014 260.672 129.008 260.755 128.963C264.289 127.378 267.976 126.122 271.619 124.816C276.262 123.152 280.912 121.502 285.505 119.702C287.995 118.726 290.469 117.702 292.905 116.602C293.026 116.531 293.084 116.388 293.047 116.253C289.785 106.187 286.495 96.143 282.579 86.309C281.318 83.144 280.018 79.994 278.704 76.852C278.655 76.6902 278.488 76.5952 278.324 76.636C268.586 79.464 258.955 82.636 249.356 85.902C248.243 86.28 247.133 86.671 246.012 87.022C245.634 87.141 245.795 87.738 246.177 87.622C248.8 86.799 251.39 85.863 253.994 84.985C258.845 83.351 263.711 81.7647 268.594 80.226C271.883 79.196 275.183 78.1994 278.494 77.236L278.113 77.02C282.154 86.683 285.886 96.429 289.177 106.374C290.284 109.719 291.377 113.068 292.456 116.422L292.598 116.073C283.887 120.037 274.748 122.942 265.798 126.291C263.998 126.964 262.205 127.653 260.453 128.438L260.908 128.623C259.279 124.549 257.863 120.384 256.408 116.248C254.2 109.985 252.023 103.712 249.876 97.429C248.712 94.0357 247.555 90.6404 246.404 87.243C246.277 86.868 245.679 87.029 245.804 87.407" fill="#003849"/>
<path fill-rule="evenodd" clip-rule="evenodd" d="M251.028 85.6361C252.664 90.4988 254.316 95.3564 255.984 100.209C258.05 106.26 260.123 112.31 262.203 118.357C263.136 121.062 264.069 123.767 265.003 126.471C265.133 126.845 265.729 126.684 265.603 126.307C263.771 121.014 261.948 115.717 260.135 110.418C258.105 104.493 256.08 98.5674 254.06 92.6401C253.247 90.2521 252.437 87.8631 251.631 85.4731C251.504 85.0981 250.907 85.2581 251.031 85.6371" fill="#003849"/>
<path fill-rule="evenodd" clip-rule="evenodd" d="M267.724 92.3101C264.287 93.5101 263.258 93.7451 261.28 95.6621C260.229 96.7131 260.229 98.4441 261.96 98.5681C263.876 98.6921 266.597 97.4551 268.39 96.7751C270.306 96.0331 272.161 95.1681 273.954 94.3021C275.005 93.7461 276.241 93.1891 276.18 91.8911C276.056 89.6651 272.223 90.4071 267.725 92.3101" fill="#003849"/>
<path fill-rule="evenodd" clip-rule="evenodd" d="M264.537 105.785C269.374 104.168 274.128 102.319 278.88 100.468C279.246 100.325 279.087 99.727 278.715 99.868C273.964 101.719 269.21 103.568 264.372 105.185C263.997 105.311 264.157 105.908 264.537 105.785Z" fill="#003849"/>
<path fill-rule="evenodd" clip-rule="evenodd" d="M263.232 103.029C268.069 101.412 272.823 99.563 277.575 97.7121C277.941 97.569 277.782 96.9711 277.41 97.112C272.659 98.963 267.905 100.812 263.067 102.429C262.692 102.555 262.852 103.152 263.232 103.029Z" fill="#003849"/>
<path fill-rule="evenodd" clip-rule="evenodd" d="M283.152 21.6821C280.711 24.2601 280.527 28.5191 282.026 31.6151C284.166 35.471 288.761 37.2402 292.935 35.8151C296.568 34.3756 299.126 31.0677 299.605 27.1891C299.809 23.312 297.518 19.7366 293.91 18.3021C292.141 17.523 290.16 17.3665 288.291 17.8581C286.168 18.5189 284.336 19.889 283.103 21.7391C282.871 22.0621 283.403 22.3721 283.637 22.0511C285.72 19.1511 289.068 17.4881 292.621 18.4941C296.046 19.4197 298.569 22.3276 299.003 25.8491C299.093 29.3401 297.304 32.6114 294.317 34.4201C292.486 35.6343 290.226 36.0172 288.097 35.4741C286.146 35.0165 284.407 33.9131 283.162 32.3431C281.126 29.4521 281.09 24.7601 283.586 22.1231C283.86 21.8341 283.423 21.3961 283.149 21.6851" fill="#003849"/>
<path fill-rule="evenodd" clip-rule="evenodd" d="M285.365 23.3711C283.28 25.5181 283.575 29.9631 285.875 31.8011C287.975 33.4011 290.504 34.0371 292.946 32.6351C296.518 30.5911 298.356 25.6481 294.718 22.2941C293.427 20.9849 291.606 20.3427 289.779 20.5531C287.953 20.7634 286.325 21.8028 285.365 23.3711" fill="#5596A5"/>
<path fill-rule="evenodd" clip-rule="evenodd" d="M286.752 29.322C287.038 28.122 287.325 26.9193 287.612 25.714C287.705 25.327 287.112 25.163 287.012 25.55C286.726 26.75 286.439 27.9527 286.152 29.158C286.06 29.545 286.652 29.71 286.752 29.322Z" fill="#003849"/>
<path fill-rule="evenodd" clip-rule="evenodd" d="M289.614 30.713C290.251 28.043 290.928 25.381 291.565 22.713C291.658 22.326 291.065 22.162 290.964 22.549C290.328 25.22 289.651 27.881 289.014 30.549C288.922 30.936 289.514 31.1 289.614 30.713Z" fill="#003849"/>
<path fill-rule="evenodd" clip-rule="evenodd" d="M293.192 28.1531C293.365 27.4261 293.497 26.6891 293.712 25.9721C293.757 25.8064 293.66 25.6354 293.494 25.5901C293.328 25.5448 293.157 25.6424 293.112 25.8081C292.897 26.5251 292.765 27.2621 292.592 27.9891C292.547 28.1547 292.644 28.3258 292.81 28.371C292.976 28.4163 293.147 28.3187 293.192 28.1531Z" fill="#003849"/>
<path fill-rule="evenodd" clip-rule="evenodd" d="M297.482 32.0351C300.375 33.1421 303.304 34.1621 306.243 35.1351C307.838 35.7806 309.541 36.1199 311.263 36.1351C312.162 36.0851 314.104 35.7931 314.409 34.7491C314.808 33.3751 312.525 32.4261 311.615 32.0181C309.397 31.0746 307.106 30.3127 304.765 29.7401C302.897 29.1984 300.999 28.7696 299.081 28.4561C298.692 28.4021 298.523 28.9981 298.915 29.0561C300.351 29.2887 301.774 29.5958 303.178 29.9761C305.376 30.4994 307.544 31.1417 309.672 31.9001C310.602 32.2247 311.505 32.6216 312.373 33.0871C312.841 33.3481 313.573 33.7221 313.779 34.2621C314.1 35.0911 312.219 35.4001 311.672 35.4801C309.993 35.5874 308.313 35.3057 306.762 34.6571C303.702 33.6501 300.652 32.5881 297.645 31.4361C297.273 31.2941 297.111 31.8911 297.48 32.0361" fill="#003849"/>
<path fill-rule="evenodd" clip-rule="evenodd" d="M109.033 90.938C106.333 82.752 94.9991 82.261 88.55 85.913C87.7669 86.3513 87.035 86.8756 86.368 87.4761C86.0327 87.7792 85.7198 88.1064 85.4321 88.455C85.2 88.7249 85.0859 89.0764 85.1151 89.431C85.045 91.184 84.989 92.937 84.936 94.69C84.7934 99.42 84.6744 104.15 84.579 108.881C84.497 112.907 84.361 116.946 84.45 120.973C84.4523 121.083 84.512 121.183 84.6071 121.238C84.7023 121.293 84.8192 121.293 84.915 121.24C90.558 118.533 97.497 116.171 103.715 118.24C105.538 118.857 107.203 119.866 108.593 121.196C108.693 121.294 108.846 121.313 108.968 121.244C111.852 118.983 115.382 117.703 119.045 117.589C122.182 117.662 125.265 118.413 128.085 119.789C129.668 120.505 131.199 121.328 132.715 122.175C132.811 122.229 132.928 122.228 133.023 122.174C133.119 122.119 133.178 122.018 133.18 121.908V88.134C133.18 87.766 133.28 87.305 133.027 87.021C132.562 86.5995 132.04 86.2454 131.477 85.969C127.456 83.6621 122.738 82.884 118.189 83.778C114.209 84.526 109.64 86.736 108.433 90.939C108.388 91.1047 108.485 91.2757 108.651 91.321C108.817 91.3663 108.988 91.2687 109.033 91.103C109.903 88.074 112.775 86.134 115.601 85.118C119.15 83.8708 122.989 83.7023 126.633 84.634C128.837 85.1906 130.907 86.1843 132.72 87.556L132.567 87.289V121.914L133.032 121.647C127.398 118.496 121.067 115.671 114.532 117.662C112.416 118.338 110.431 119.37 108.662 120.714L109.037 120.762C106.592 118.476 103.427 117.116 100.086 116.914C96.6396 116.763 93.1976 117.3 89.9611 118.494C88.1331 119.123 86.3445 119.862 84.6051 120.706L85.071 120.973C84.998 117.716 85.095 114.451 85.155 111.195C85.2397 106.6 85.347 102.006 85.4771 97.412C85.5317 95.4614 85.5917 93.5114 85.657 91.562C85.6824 90.8234 85.7097 90.084 85.7391 89.344C85.7681 88.644 86.7191 87.964 87.246 87.536C90.4138 85.1896 94.3263 84.0744 98.2551 84.398C102.598 84.655 106.996 86.725 108.439 91.098C108.563 91.474 109.16 91.313 109.039 90.934" fill="#003849"/>
<path fill-rule="evenodd" clip-rule="evenodd" d="M108.425 91.0201C108.425 99.213 108.495 107.407 108.528 115.6C108.533 117.221 108.538 118.841 108.542 120.462C108.543 120.632 108.74 120.77 108.983 120.77C109.227 120.77 109.424 120.632 109.425 120.462C109.425 112.269 109.355 104.076 109.322 95.882C109.315 94.2621 109.31 92.6417 109.308 91.0211C109.307 90.8508 109.109 90.7131 108.866 90.7131C108.623 90.7131 108.426 90.8508 108.425 91.0211" fill="#003849"/>
<path fill-rule="evenodd" clip-rule="evenodd" d="M87.8979 92.5861C88.3685 91.9418 89.1525 91.6047 89.9438 91.7061C90.5779 91.8671 91.1599 92.2121 91.7839 92.4061C93.2839 92.8761 94.3379 92.3241 95.6149 91.5871C96.3016 91.1342 97.1072 90.8951 97.9299 90.9001C98.8856 91.0665 99.8036 91.4036 100.64 91.8951C101.345 92.3141 102.162 92.5048 102.979 92.4412C103.818 92.2831 104.459 91.6351 105.279 91.4191C105.445 91.3738 105.542 91.2028 105.497 91.0371C105.452 90.8715 105.281 90.7738 105.115 90.8191C104.252 91.0451 103.505 91.8341 102.601 91.8581C101.585 91.7151 100.613 91.3535 99.7509 90.7981C98.3281 90.0855 96.6341 90.1814 95.3009 91.0501C94.7177 91.4634 94.067 91.772 93.3779 91.9621C92.5344 92.0193 91.6922 91.8325 90.9519 91.4241C90.4565 91.159 89.9017 91.0248 89.3399 91.0341C88.6071 91.1833 87.9453 91.5733 87.4599 92.1421C87.1749 92.4201 87.6119 92.8571 87.8979 92.5801" fill="#003849"/>
<path fill-rule="evenodd" clip-rule="evenodd" d="M87.8973 96.732C88.3682 96.0881 89.152 95.7513 89.9432 95.853C90.5773 96.014 91.1593 96.359 91.7833 96.553C93.2833 97.023 94.3373 96.471 95.6143 95.733C96.301 95.2802 97.1067 95.0414 97.9293 95.047C98.885 95.2128 99.803 95.5495 100.639 96.041C101.344 96.4591 102.161 96.6497 102.978 96.587C103.817 96.431 104.458 95.781 105.278 95.565C105.444 95.5197 105.542 95.3487 105.496 95.183C105.451 95.0173 105.28 94.9197 105.114 94.965C104.251 95.192 103.503 95.98 102.6 96.004C101.585 95.861 100.612 95.4994 99.7502 94.944C98.3275 94.2314 96.6335 94.3273 95.3003 95.196C94.7173 95.6096 94.0665 95.9183 93.3773 96.108C92.5338 96.1655 91.6917 95.9791 90.9513 95.571C90.4559 95.3059 89.9011 95.1717 89.3393 95.181C88.6066 95.3297 87.9447 95.7194 87.4593 96.288C87.1733 96.566 87.6113 97.003 87.8973 96.726" fill="#003849"/>
<path fill-rule="evenodd" clip-rule="evenodd" d="M87.8973 100.878C88.368 100.234 89.152 99.8972 89.9432 99.9991C90.5773 100.16 91.1593 100.505 91.7833 100.699C93.2833 101.169 94.3373 100.617 95.6143 99.8801C96.3009 99.4269 97.1066 99.1878 97.9293 99.1931C98.885 99.3595 99.803 99.6965 100.639 100.188C101.344 100.607 102.161 100.797 102.978 100.734C103.817 100.575 104.458 99.9281 105.278 99.7121C105.444 99.6668 105.542 99.4958 105.496 99.3301C105.451 99.1644 105.28 99.0668 105.114 99.1121C104.251 99.3391 103.504 100.127 102.6 100.151C101.585 100.008 100.612 99.6465 99.7502 99.0911C98.3276 98.3783 96.6334 98.4742 95.3003 99.3431C94.717 99.7564 94.0663 100.065 93.3773 100.255C92.5338 100.312 91.6917 100.125 90.9513 99.7171C90.4559 99.452 89.9011 99.3178 89.3393 99.3271C88.6066 99.4758 87.9447 99.8655 87.4593 100.434C87.1733 100.712 87.6113 101.149 87.8973 100.872" fill="#003849"/>
<path fill-rule="evenodd" clip-rule="evenodd" d="M87.8979 105.026C88.3685 104.382 89.1525 104.045 89.9438 104.146C90.5779 104.308 91.1599 104.652 91.7839 104.846C93.2839 105.316 94.3379 104.764 95.6149 104.026C96.3016 103.573 97.1072 103.334 97.9299 103.339C98.8856 103.505 99.8036 103.842 100.64 104.334C101.345 104.752 102.162 104.943 102.979 104.88C103.818 104.724 104.46 104.074 105.279 103.858C105.445 103.813 105.542 103.642 105.497 103.476C105.452 103.31 105.281 103.213 105.115 103.258C104.253 103.485 103.504 104.274 102.601 104.297C101.585 104.154 100.613 103.792 99.7509 103.237C98.3281 102.524 96.6341 102.62 95.3009 103.489C94.7177 103.902 94.067 104.211 93.3779 104.401C92.5343 104.459 91.6921 104.272 90.9519 103.863C90.4565 103.598 89.9017 103.464 89.3399 103.473C88.6071 103.622 87.9453 104.012 87.4599 104.581C87.1749 104.859 87.6119 105.296 87.8979 105.019" fill="#003849"/>
<path fill-rule="evenodd" clip-rule="evenodd" d="M87.8973 109.172C88.368 108.528 89.152 108.191 89.9432 108.293C90.5773 108.454 91.1593 108.799 91.7833 108.993C93.2833 109.463 94.3373 108.911 95.6143 108.173C96.301 107.72 97.1067 107.481 97.9293 107.487C98.8851 107.653 99.8031 107.99 100.639 108.482C101.344 108.9 102.161 109.091 102.978 109.028C103.817 108.872 104.458 108.222 105.278 108.006C105.444 107.961 105.542 107.79 105.496 107.624C105.451 107.458 105.28 107.361 105.114 107.406C104.251 107.633 103.504 108.421 102.6 108.445C101.585 108.302 100.612 107.94 99.7502 107.385C98.3276 106.672 96.6334 106.768 95.3003 107.637C94.7173 108.051 94.0665 108.359 93.3773 108.549C92.5338 108.607 91.6917 108.42 90.9513 108.012C90.4559 107.747 89.9011 107.613 89.3393 107.622C88.6066 107.771 87.9447 108.16 87.4593 108.729C87.1733 109.007 87.6113 109.444 87.8973 109.167" fill="#003849"/>
<path fill-rule="evenodd" clip-rule="evenodd" d="M87.8979 113.319C88.3685 112.675 89.1525 112.338 89.9438 112.439C90.5779 112.6 91.1599 112.945 91.7839 113.139C93.2839 113.609 94.3379 113.057 95.6149 112.32C96.3016 111.867 97.1072 111.628 97.9299 111.633C98.8856 111.799 99.8036 112.136 100.64 112.628C101.345 113.047 102.162 113.238 102.979 113.174C103.818 113.016 104.459 112.368 105.279 112.152C105.445 112.107 105.542 111.936 105.497 111.77C105.452 111.604 105.281 111.507 105.115 111.552C104.252 111.779 103.505 112.567 102.601 112.591C101.585 112.448 100.613 112.086 99.7509 111.531C98.3282 110.818 96.634 110.914 95.3009 111.783C94.7177 112.196 94.067 112.505 93.3779 112.695C92.5344 112.752 91.6922 112.565 90.9519 112.157C90.4565 111.892 89.9017 111.758 89.3399 111.767C88.6071 111.916 87.9453 112.306 87.4599 112.875C87.1749 113.153 87.6119 113.59 87.8979 113.313" fill="#003849"/>
<path fill-rule="evenodd" clip-rule="evenodd" d="M111.615 92.5861C112.086 91.9418 112.87 91.6047 113.661 91.7061C114.295 91.8671 114.877 92.2121 115.502 92.4061C117.002 92.8761 118.056 92.3241 119.332 91.5871C120.019 91.1343 120.824 90.8952 121.647 90.9001C122.603 91.0665 123.521 91.4036 124.357 91.8951C125.062 92.3131 125.878 92.5038 126.695 92.4412C127.534 92.2851 128.176 91.6351 128.995 91.4191C129.161 91.3738 129.258 91.2028 129.213 91.0371C129.168 90.8715 128.997 90.7738 128.831 90.8191C127.968 91.0451 127.221 91.8341 126.317 91.8581C125.302 91.7151 124.329 91.3535 123.467 90.7981C122.044 90.0855 120.35 90.1814 119.017 91.0501C118.434 91.4632 117.783 91.7718 117.094 91.9621C116.251 92.0192 115.408 91.8325 114.668 91.4241C114.173 91.159 113.618 91.0248 113.056 91.0341C112.323 91.1831 111.661 91.5731 111.175 92.1421C110.889 92.4201 111.327 92.8571 111.613 92.5801" fill="#003849"/>
<path fill-rule="evenodd" clip-rule="evenodd" d="M111.615 96.732C112.086 96.0881 112.87 95.7513 113.661 95.853C114.295 96.014 114.877 96.359 115.502 96.553C117.002 97.023 118.056 96.471 119.332 95.733C120.019 95.2802 120.825 95.0415 121.647 95.047C122.603 95.2128 123.521 95.5495 124.357 96.041C125.062 96.4589 125.878 96.6496 126.695 96.587C127.534 96.431 128.176 95.781 128.995 95.565C129.161 95.5197 129.258 95.3487 129.213 95.183C129.168 95.0173 128.997 94.9197 128.831 94.965C127.968 95.192 127.22 95.98 126.317 96.004C125.302 95.861 124.329 95.4994 123.467 94.944C122.044 94.2314 120.35 94.3273 119.017 95.196C118.434 95.6095 117.783 95.9181 117.094 96.108C116.251 96.1654 115.409 95.979 114.668 95.571C114.173 95.3059 113.618 95.1717 113.056 95.181C112.323 95.3294 111.661 95.7191 111.175 96.288C110.889 96.566 111.327 97.003 111.613 96.726" fill="#003849"/>
<path fill-rule="evenodd" clip-rule="evenodd" d="M111.615 100.878C112.086 100.234 112.87 99.8974 113.661 99.9991C114.295 100.16 114.877 100.505 115.502 100.699C117.002 101.169 118.056 100.617 119.332 99.8801C120.019 99.427 120.824 99.188 121.647 99.1931C122.603 99.3595 123.521 99.6965 124.357 100.188C125.062 100.606 125.878 100.796 126.695 100.734C127.534 100.577 128.176 99.9281 128.995 99.7121C129.161 99.6668 129.258 99.4958 129.213 99.3301C129.168 99.1644 128.997 99.0668 128.831 99.1121C127.968 99.3391 127.221 100.127 126.317 100.151C125.302 100.008 124.329 99.6465 123.467 99.0911C122.044 98.3785 120.35 98.4744 119.017 99.3431C118.434 99.7562 117.783 100.065 117.094 100.255C116.251 100.312 115.409 100.125 114.668 99.7171C114.173 99.452 113.618 99.3178 113.056 99.3271C112.323 99.4755 111.661 99.8652 111.175 100.434C110.889 100.712 111.327 101.149 111.613 100.872" fill="#003849"/>
<path fill-rule="evenodd" clip-rule="evenodd" d="M111.615 105.026C112.086 104.382 112.87 104.045 113.661 104.146C114.295 104.308 114.877 104.652 115.502 104.846C117.002 105.316 118.056 104.764 119.332 104.026C120.019 103.573 120.824 103.334 121.647 103.339C122.603 103.505 123.521 103.842 124.357 104.334C125.062 104.752 125.878 104.943 126.695 104.88C127.534 104.724 128.176 104.074 128.995 103.858C129.161 103.813 129.258 103.642 129.213 103.476C129.168 103.31 128.997 103.213 128.831 103.258C127.969 103.485 127.22 104.274 126.317 104.297C125.302 104.154 124.329 103.792 123.467 103.237C122.044 102.524 120.35 102.62 119.017 103.489C118.434 103.902 117.783 104.211 117.094 104.401C116.251 104.459 115.408 104.272 114.668 103.863C114.173 103.598 113.618 103.464 113.056 103.473C112.323 103.622 111.661 104.012 111.175 104.581C110.889 104.859 111.327 105.296 111.613 105.019" fill="#003849"/>
<path fill-rule="evenodd" clip-rule="evenodd" d="M111.615 109.172C112.086 108.528 112.87 108.191 113.661 108.293C114.295 108.454 114.877 108.799 115.502 108.993C117.002 109.463 118.056 108.911 119.332 108.173C120.019 107.72 120.825 107.482 121.647 107.487C122.603 107.653 123.521 107.99 124.357 108.482C125.062 108.9 125.878 109.09 126.695 109.028C127.534 108.872 128.176 108.222 128.995 108.006C129.161 107.961 129.258 107.79 129.213 107.624C129.168 107.458 128.997 107.361 128.831 107.406C127.968 107.633 127.22 108.421 126.317 108.445C125.302 108.302 124.329 107.941 123.467 107.385C122.044 106.672 120.35 106.768 119.017 107.637C118.434 108.051 117.783 108.359 117.094 108.549C116.251 108.606 115.409 108.42 114.668 108.012C114.173 107.747 113.618 107.613 113.056 107.622C112.323 107.77 111.661 108.16 111.175 108.729C110.889 109.007 111.327 109.444 111.613 109.167" fill="#003849"/>
<path fill-rule="evenodd" clip-rule="evenodd" d="M111.615 113.319C112.086 112.675 112.87 112.338 113.661 112.439C114.295 112.6 114.877 112.945 115.502 113.139C117.002 113.609 118.056 113.057 119.332 112.32C120.019 111.867 120.824 111.628 121.647 111.633C122.603 111.799 123.521 112.136 124.357 112.628C125.062 113.046 125.878 113.237 126.695 113.174C127.534 113.018 128.176 112.368 128.995 112.152C129.161 112.107 129.258 111.936 129.213 111.77C129.168 111.604 128.997 111.507 128.831 111.552C127.968 111.779 127.221 112.567 126.317 112.591C125.302 112.448 124.329 112.086 123.467 111.531C122.044 110.818 120.35 110.914 119.017 111.783C118.434 112.196 117.783 112.505 117.094 112.695C116.251 112.752 115.408 112.565 114.668 112.157C114.173 111.892 113.618 111.758 113.056 111.767C112.323 111.916 111.661 112.306 111.175 112.875C110.889 113.153 111.327 113.59 111.613 113.313" fill="#003849"/>
<path fill-rule="evenodd" clip-rule="evenodd" d="M294.717 77.8931C290.856 71.3551 290.335 62.5321 294.059 55.8111C295.794 52.5786 298.65 50.0917 302.091 48.8181C306.405 47.3135 311.141 47.5968 315.245 49.6051C317.438 50.7467 319.394 52.2937 321.011 54.164C321.891 55.1638 322.698 56.2251 323.426 57.34C324.383 58.7298 325.232 60.1908 325.967 61.7101L326.077 61.2871C322.277 63.4541 318.369 65.4331 314.487 67.4431C309.631 69.9564 304.764 72.4514 299.887 74.9281C298.02 75.8794 296.153 76.8307 294.287 77.7821C293.933 77.9641 294.245 78.4971 294.599 78.3161C298.492 76.3241 302.387 74.3361 306.285 72.3521C311.153 69.8611 316.018 67.3651 320.854 64.8131C322.707 63.8351 324.562 62.8591 326.382 61.8211C326.525 61.7319 326.574 61.5462 326.493 61.3981C325.81 59.9892 325.027 58.6311 324.151 57.334C323.495 56.3092 322.779 55.3247 322.005 54.3861C320.542 52.5806 318.793 51.0267 316.828 49.7861C312.809 47.3702 307.997 46.6446 303.445 47.7681C299.737 48.6855 296.502 50.9483 294.369 54.1171C292.239 57.3719 291.054 61.1544 290.947 65.0431C290.736 69.6492 291.857 74.2185 294.176 78.2041C294.262 78.3515 294.451 78.4011 294.599 78.315C294.746 78.2288 294.796 78.0395 294.71 77.8921" fill="#003849"/>
<path fill-rule="evenodd" clip-rule="evenodd" d="M299.4 70.4061C297.078 66.4758 296.929 61.6303 299.006 57.5651C300.021 55.6634 301.706 54.2058 303.733 53.4741C306.246 52.6181 308.997 52.8043 311.372 53.9911C314.136 55.6067 316.303 58.0722 317.551 61.0201C317.588 60.8791 317.625 60.7381 317.662 60.5971C312.65 63.4541 307.434 65.9831 302.295 68.6021C301.189 69.1661 300.083 69.7301 298.977 70.2941C298.623 70.4761 298.935 71.009 299.289 70.828C304.431 68.1981 309.589 65.5981 314.698 62.9041C315.798 62.3241 316.898 61.7451 317.975 61.1301C318.119 61.0412 318.168 60.8551 318.086 60.707C316.883 57.9564 314.933 55.5977 312.458 53.8981C310.073 52.4276 307.201 51.9667 304.475 52.6171C299.769 53.7101 297.184 58.2431 296.956 62.817C296.814 65.58 297.478 68.3246 298.867 70.7171C298.953 70.8645 299.143 70.9141 299.29 70.828C299.438 70.7419 299.487 70.5526 299.401 70.4051" fill="#003849"/>
<path fill-rule="evenodd" clip-rule="evenodd" d="M296.852 73.3431C297.302 74.1511 297.536 75.0611 298.009 75.8571C298.095 76.0045 298.285 76.0542 298.432 75.9681C298.58 75.8819 298.629 75.6925 298.543 75.5451C298.07 74.7451 297.836 73.8391 297.386 73.0311C297.192 72.6831 296.658 72.9951 296.852 73.3431" fill="#003849"/>
<path fill-rule="evenodd" clip-rule="evenodd" d="M303.842 70.9291C304.103 71.5201 304.405 72.0916 304.747 72.6391C304.803 72.7345 304.906 72.793 305.016 72.7924C305.126 72.7919 305.228 72.7324 305.283 72.6364C305.338 72.5404 305.337 72.4225 305.281 72.3271C304.939 71.7795 304.637 71.208 304.376 70.6171C304.29 70.4705 304.101 70.421 303.953 70.5061C303.809 70.5949 303.761 70.7811 303.842 70.9291" fill="#003849"/>
<path fill-rule="evenodd" clip-rule="evenodd" d="M310.883 67.2581C311.032 67.5581 311.203 67.8381 311.36 68.1301C311.516 68.4 311.633 68.691 311.707 68.9941C311.752 69.1598 311.923 69.2574 312.089 69.2121C312.254 69.1668 312.352 68.9958 312.307 68.8301C312.086 68.1696 311.789 67.5373 311.421 66.9461C311.334 66.7995 311.145 66.75 310.998 66.8351C310.853 66.9236 310.804 67.1101 310.887 67.2581" fill="#003849"/>
<path fill-rule="evenodd" clip-rule="evenodd" d="M317.167 64.053C317.173 64.061 317.242 64.153 317.212 64.11L317.285 64.21C317.334 64.2767 317.381 64.3434 317.428 64.41C317.52 64.5434 317.608 64.6804 317.692 64.821C317.866 65.107 318.024 65.401 318.174 65.7C318.261 65.8462 318.449 65.8955 318.597 65.811C318.741 65.7222 318.79 65.5361 318.708 65.388C318.404 64.7605 318.035 64.1663 317.608 63.615C317.487 63.4949 317.292 63.4949 317.171 63.615C317.055 63.7379 317.055 63.9301 317.171 64.053" fill="#003849"/>
<path fill-rule="evenodd" clip-rule="evenodd" d="M324.37 58.4871C323.804 58.7961 323.237 59.1031 322.66 59.3921C322.514 59.4793 322.465 59.6674 322.549 59.8151C322.638 59.9586 322.824 60.0073 322.972 59.9261C323.548 59.6371 324.115 59.3261 324.681 59.0211C324.828 58.9343 324.877 58.7457 324.792 58.5981C324.704 58.4538 324.517 58.4049 324.369 58.4871" fill="#003849"/>
<path fill-rule="evenodd" clip-rule="evenodd" d="M319.731 52.8531C319.166 53.3651 318.556 53.8241 317.971 54.3111C317.851 54.4323 317.851 54.6278 317.971 54.7491C318.094 54.865 318.286 54.865 318.408 54.7491C318.994 54.2621 319.608 53.8031 320.168 53.2901C320.288 53.169 320.288 52.9742 320.168 52.8531C320.046 52.7366 319.854 52.7366 319.731 52.8531" fill="#003849"/>
<path fill-rule="evenodd" clip-rule="evenodd" d="M313.347 48.5411C312.987 49.0561 312.647 49.5861 312.291 50.1001C312.207 50.2478 312.256 50.436 312.402 50.5231C312.55 50.6049 312.736 50.556 312.825 50.4121C313.185 49.8981 313.525 49.3681 313.881 48.8531C313.966 48.7055 313.917 48.5169 313.77 48.4301C313.622 48.3484 313.436 48.3973 313.347 48.5411Z" fill="#003849"/>
<path fill-rule="evenodd" clip-rule="evenodd" d="M305.923 47.8101C305.774 48.4521 305.569 49.0791 305.423 49.7211C305.378 49.8868 305.475 50.0578 305.641 50.1031C305.807 50.1484 305.978 50.0508 306.023 49.8851C306.172 49.2431 306.377 48.6161 306.523 47.9741C306.568 47.8084 306.471 47.6374 306.305 47.5921C306.14 47.5469 305.969 47.6444 305.923 47.8101Z" fill="#003849"/>
<path fill-rule="evenodd" clip-rule="evenodd" d="M298.007 50.9761C298.402 51.4191 298.868 51.7901 299.264 52.2331C299.385 52.3527 299.58 52.3527 299.701 52.2331C299.818 52.1105 299.818 51.9176 299.701 51.7951C299.301 51.3531 298.839 50.9811 298.444 50.5381C298.323 50.4185 298.128 50.4185 298.007 50.5381C297.89 50.6604 297.89 50.8537 298.007 50.9761" fill="#003849"/>
<path fill-rule="evenodd" clip-rule="evenodd" d="M293.266 57.6441C293.776 57.8237 294.297 57.975 294.825 58.0971C294.932 58.1266 295.047 58.0967 295.126 58.0186C295.205 57.9405 295.236 57.8261 295.208 57.7186C295.18 57.611 295.097 57.5266 294.99 57.4971C294.462 57.3749 293.942 57.2236 293.431 57.0441C293.266 57.0004 293.097 57.0964 293.05 57.2601C293.008 57.4242 293.104 57.5917 293.266 57.6401" fill="#003849"/>
<path fill-rule="evenodd" clip-rule="evenodd" d="M291.436 65.7336C292.153 65.6713 292.868 65.5979 293.58 65.4743C293.744 65.4184 293.841 65.2107 293.796 65.0094C293.747 64.8115 293.58 64.6953 293.416 64.7452C292.766 64.8577 292.097 64.9189 291.437 64.9776C291.326 64.9771 291.224 65.0491 291.169 65.1662C291.113 65.2834 291.113 65.4278 291.169 65.545C291.224 65.6622 291.326 65.7341 291.437 65.7336" fill="#003849"/>
<path fill-rule="evenodd" clip-rule="evenodd" d="M292.674 73.0321C293.231 72.8348 293.776 72.6064 294.307 72.348C294.453 72.2609 294.502 72.0724 294.417 71.925C294.328 71.7812 294.142 71.7324 293.994 71.814C293.867 71.8771 293.739 71.939 293.61 71.997L293.428 72.077L293.35 72.111L293.293 72.135C293.033 72.2411 292.771 72.341 292.508 72.4351C292.342 72.4806 292.245 72.6518 292.29 72.8175C292.336 72.9832 292.507 73.0806 292.673 73.0351" fill="#003849"/>
<path fill-rule="evenodd" clip-rule="evenodd" d="M91.4907 62.8561C92.4907 58.3651 87.9797 53.961 88.1627 49.192C88.3827 44.692 92.1087 42.567 96.2877 43.332C101.17 44.332 105.021 47.993 104.488 53.425C104.116 57.2161 100.937 59.271 98.5386 61.7251C97.7144 62.5534 97.0353 63.5145 96.5297 64.5681" fill="#FFD066"/>
<path fill-rule="evenodd" clip-rule="evenodd" d="M96.1768 64.3821C94.8768 63.9441 93.5287 63.6011 92.2548 63.0761C91.3113 62.6265 90.2626 62.4442 89.2228 62.5491C88.6378 62.6341 87.8548 62.8961 87.7558 63.5761C87.6248 64.4671 88.7318 65.1031 89.3668 65.4591L89.4408 64.8941C88.5678 65.0941 87.2057 65.4341 86.7978 66.3491C86.2978 67.4711 87.9138 68.1751 88.6818 68.4961V67.8961C87.8578 68.2021 85.9818 68.8911 86.5248 70.1221C86.7913 70.5894 87.1943 70.9642 87.6797 71.1961C88.3577 71.5737 89.0654 71.8951 89.7958 72.1571C91.2626 72.7485 92.7917 73.1718 94.3538 73.4191C95.1788 73.5301 96.5018 73.5191 96.7427 72.4911C96.9838 71.4631 95.9557 70.4911 95.1778 70.0081L95.0218 70.5841C96.0148 70.5621 97.5447 70.2961 97.5137 69.0031C97.3292 67.9489 96.6094 67.0666 95.6138 66.6741L95.3758 67.2391C96.1998 67.4391 98.4028 67.8981 98.6138 66.5601C98.8018 65.3601 97.0468 64.6441 96.1788 64.3781C95.7978 64.2611 95.6338 64.8581 96.0138 64.9781C96.5454 65.122 97.0458 65.3631 97.4898 65.6891C97.6898 65.8461 98.0428 66.1541 98.0068 66.4481C97.9068 67.2351 95.9138 66.7371 95.5408 66.6481C95.2138 66.5691 94.9758 67.0481 95.3028 67.2131C96.0545 67.5061 96.6352 68.1209 96.8848 68.8881C97.0478 69.8561 95.6708 69.9571 95.0237 69.9711C94.8867 69.9755 94.7685 70.069 94.7326 70.2014C94.6968 70.3338 94.7516 70.4741 94.8677 70.5471C95.4068 70.8831 96.1338 71.4841 96.1558 72.1861C96.1818 73.0081 94.8948 72.8861 94.3848 72.8101C93.1846 72.5976 92.0039 72.2866 90.8548 71.8801C89.6913 71.5643 88.5857 71.0647 87.5798 70.4001C87.3218 70.2091 86.9297 69.9001 87.1038 69.5381C87.3768 68.9781 88.3278 68.6901 88.8478 68.4971C88.9818 68.4589 89.0741 68.3364 89.0741 68.1971C89.0741 68.0578 88.9818 67.9354 88.8478 67.8971C88.4098 67.7141 86.8868 67.1181 87.4758 66.4291C88.0773 65.9111 88.8188 65.5829 89.6068 65.4861C89.7248 65.451 89.8111 65.3497 89.8271 65.2276C89.8431 65.1056 89.7858 64.9855 89.6808 64.9211C89.3608 64.7411 88.0438 64.0621 88.4368 63.5211C88.7778 63.0471 89.7648 63.0971 90.2598 63.1421C91.1602 63.3056 92.0364 63.5817 92.8678 63.9641C93.9078 64.3301 94.9678 64.6271 96.0148 64.9771C96.3928 65.1041 96.5558 64.5071 96.1797 64.3771" fill="#003849"/>
<path fill-rule="evenodd" clip-rule="evenodd" d="M88.8661 65.3831L93.7841 67.0501C94.1621 67.1781 94.3241 66.5811 93.9481 66.4501L89.0311 64.7811C88.6531 64.6531 88.4911 65.2491 88.8661 65.3811" fill="#003849"/>
<path fill-rule="evenodd" clip-rule="evenodd" d="M90.8796 69.2L94.9385 70.577C95.3166 70.705 95.4786 70.109 95.1036 69.977L91.0446 68.6C90.6666 68.472 90.5046 69.069 90.8806 69.2" fill="#003849"/>
<path fill-rule="evenodd" clip-rule="evenodd" d="M92.7235 63.2881C93.5602 62.2922 94.1224 61.095 94.3545 59.8151C94.4841 58.6867 94.5336 57.5505 94.5025 56.4151C94.6931 55.1074 94.646 53.7761 94.3635 52.4851C94.2286 51.9137 93.8298 51.4407 93.2895 51.2111C92.6363 51.0201 91.9308 51.1839 91.4285 51.6431C90.3005 52.7991 91.4285 54.8711 92.5445 55.5641C94.8065 56.9641 96.4445 54.4161 97.3125 52.6701L96.7365 52.5141C96.6765 53.8541 96.6845 56.0771 98.0915 56.7871C99.3615 57.4271 100.724 56.4111 101.168 55.2411C101.458 54.4791 101.469 52.8251 100.203 53.1721C99.5083 53.4686 98.9194 53.969 98.5145 54.6071C97.8984 55.4286 97.3812 56.3197 96.9735 57.2621C96.0164 59.444 95.3144 61.7292 94.8815 64.0721C94.8065 64.4611 95.4025 64.6271 95.4815 64.2361C95.78 62.6899 96.1843 61.166 96.6915 59.6751C97.1941 58.0309 97.9509 56.4754 98.9345 55.0651C99.2445 54.6531 100.835 52.8751 100.734 54.3861C100.71 55.4441 99.8652 56.2998 98.8075 56.3381C97.2365 56.2381 97.3015 53.6191 97.3505 52.5121C97.3476 52.3742 97.2541 52.2547 97.1209 52.2186C96.9877 52.1825 96.8467 52.2385 96.7745 52.3561C96.1305 53.6561 95.0125 55.9071 93.2075 55.2071C92.5432 54.9198 92.0267 54.3714 91.7795 53.6911C91.5795 53.1911 91.4525 52.4111 91.9275 52.0131C92.3467 51.6747 92.9401 51.6571 93.3785 51.9701C93.7017 52.3505 93.8907 52.8267 93.9165 53.3251C94.0081 54.3433 93.9967 55.3682 93.8825 56.3841C93.8275 57.3631 93.9515 58.3251 93.8095 59.3071C93.6434 60.6081 93.1142 61.836 92.2825 62.8501C92.0286 63.1501 92.4635 63.5921 92.7195 63.2881" fill="#003849"/>
<path fill-rule="evenodd" clip-rule="evenodd" d="M326.213 3.87211C321.704 3.48104 317.444 5.99841 315.613 10.1371C313.855 14.0675 314.457 18.6527 317.17 21.9961C320.675 25.8073 325.989 27.3862 331.007 26.1071C333.396 25.4512 335.427 23.8737 336.654 21.7211C337.854 19.4574 338.363 16.8907 338.117 14.3401C337.956 12.0716 337.088 9.91068 335.635 8.1611C333.796 6.14993 331.358 4.7848 328.683 4.26811C327.869 4.08804 327.045 3.95449 326.216 3.86811C325.821 3.82511 325.824 4.44411 326.216 4.48611C329.086 4.67575 331.832 5.72377 334.099 7.49411C335.75 8.92583 336.879 10.8659 337.307 13.0091C338.248 17.5541 336.64 22.9921 332.184 25.0231C327.905 26.9741 322.065 25.7001 318.628 22.6111C315.631 19.8359 314.49 15.5894 315.692 11.6861C316.957 7.02828 321.416 3.9776 326.216 4.48611C326.616 4.51311 326.616 3.89511 326.216 3.86811" fill="#003849"/>
<path fill-rule="evenodd" clip-rule="evenodd" d="M326.287 6.98305C323.01 6.70104 319.918 8.53605 318.595 11.5471C317.328 14.3985 317.775 17.72 319.749 20.1361C322.294 22.8941 326.151 24.0272 329.783 23.084C333.493 22.0131 335.211 18.2481 334.908 14.5941C334.785 12.7215 333.992 10.9557 332.674 9.62005C330.901 8.04996 328.653 7.12 326.29 6.97905C325.895 6.93505 325.898 7.55405 326.29 7.59705C329.912 7.99705 333.368 9.82705 334.156 13.6441C334.822 16.8691 333.678 20.7291 330.509 22.1611C327.21 23.4132 323.489 22.7285 320.852 20.3841C318.76 18.4034 317.98 15.4038 318.842 12.6551C319.804 9.41101 322.92 7.29506 326.29 7.59705C326.69 7.62305 326.69 7.00505 326.29 6.97905" fill="#003849"/>
<path fill-rule="evenodd" clip-rule="evenodd" d="M353.614 13.9301C349.103 13.535 344.839 16.0526 343.006 20.1941C341.248 24.1245 341.85 28.7098 344.563 32.0531C348.069 35.867 353.386 37.4473 358.406 36.1671C360.794 35.5109 362.825 33.9335 364.052 31.7811C365.253 29.5173 365.761 26.9506 365.514 24.4001C365.354 22.1315 364.486 19.9705 363.032 18.2211C361.194 16.21 358.756 14.8448 356.08 14.3281C355.266 14.1478 354.443 14.0143 353.613 13.9281C353.218 13.8851 353.221 14.5041 353.613 14.5461C356.483 14.7358 359.23 15.7838 361.496 17.5541C363.148 18.9856 364.277 20.9258 364.704 23.0691C365.645 27.6141 364.038 33.0521 359.581 35.0821C355.302 37.0331 349.462 35.7591 346.025 32.6701C343.029 29.8951 341.888 25.6484 343.089 21.7451C344.355 17.0873 348.814 14.0367 353.613 14.5451C354.013 14.5721 354.013 13.9541 353.613 13.9271" fill="#003849"/>
<path fill-rule="evenodd" clip-rule="evenodd" d="M353.684 17.0431C350.407 16.7611 347.314 18.5961 345.992 21.6071C344.725 24.4585 345.171 27.7802 347.146 30.1961C349.69 32.9522 353.545 34.0847 357.176 33.1431C360.886 32.0721 362.604 28.3061 362.301 24.6521C362.176 22.7805 361.382 21.0163 360.063 19.6821C358.291 18.112 356.043 17.1821 353.68 17.0411C353.285 16.9971 353.288 17.6161 353.68 17.6591C357.302 18.0591 360.758 19.8891 361.546 23.7061C362.212 26.9311 361.068 30.7911 357.899 32.2231C354.6 33.4757 350.878 32.7909 348.242 30.4461C346.15 28.4652 345.37 25.4659 346.232 22.7171C347.194 19.4729 350.309 17.3566 353.68 17.6581C354.08 17.6841 354.08 17.0661 353.68 17.0401" fill="#003849"/>
<path fill-rule="evenodd" clip-rule="evenodd" d="M338.096 17.3591C339.925 16.2231 342.531 17.4011 343.496 19.1531C343.688 19.5011 344.223 19.1901 344.03 18.8411C342.903 16.7991 339.892 15.5141 337.781 16.8251C337.444 17.0351 337.754 17.5701 338.094 17.3591" fill="#003849"/>
<path fill-rule="evenodd" clip-rule="evenodd" d="M337.626 19.7141C339.346 18.5631 341.771 19.6501 342.642 21.3661C342.822 21.7211 343.355 21.4091 343.176 21.0541C342.159 19.0541 339.302 17.8541 337.314 19.1801C336.985 19.4001 337.294 19.9361 337.626 19.7141Z" fill="#003849"/>
<path fill-rule="evenodd" clip-rule="evenodd" d="M321.235 13.0571L326.63 10.5571C326.991 10.3901 326.677 9.8571 326.317 10.0231L320.922 12.5231C320.562 12.6901 320.875 13.2231 321.235 13.0571Z" fill="#003849"/>
<path fill-rule="evenodd" clip-rule="evenodd" d="M323.049 16.49C325.544 15.334 328.026 14.154 330.521 12.998C330.881 12.831 330.568 12.298 330.209 12.464C327.715 13.62 325.231 14.8 322.737 15.956C322.378 16.123 322.691 16.656 323.05 16.49" fill="#003849"/>
<path fill-rule="evenodd" clip-rule="evenodd" d="M326.924 18.321C327.665 18.009 328.384 17.649 329.114 17.311C329.26 17.2235 329.309 17.0354 329.224 16.888C329.136 16.7433 328.949 16.6942 328.801 16.777C328.12 17.094 327.451 17.435 326.759 17.726C326.598 17.7761 326.504 17.9423 326.543 18.106C326.59 18.2701 326.759 18.3663 326.924 18.322" fill="#003849"/>
<path fill-rule="evenodd" clip-rule="evenodd" d="M348.124 24.7271L355.318 21.3961C355.679 21.2291 355.365 20.6961 355.006 20.8621L347.812 24.1931C347.452 24.3601 347.765 24.8931 348.124 24.7271Z" fill="#003849"/>
<path fill-rule="evenodd" clip-rule="evenodd" d="M352.642 28.0961C354.042 27.4168 355.453 26.7638 356.874 26.1371C357.021 26.0503 357.07 25.8617 356.985 25.7141C356.896 25.5698 356.71 25.5208 356.562 25.6031C355.139 26.2304 353.729 26.8834 352.33 27.5621C351.972 27.7361 352.286 28.2691 352.642 28.0961Z" fill="#003849"/>
<path fill-rule="evenodd" clip-rule="evenodd" d="M356.75 29.3179L357.126 29.1002C357.161 29.0762 357.192 29.0413 357.214 28.9989C357.241 28.9613 357.26 28.9156 357.27 28.866C357.282 28.8155 357.284 28.7619 357.275 28.7103C357.273 28.6585 357.26 28.6082 357.237 28.5648C357.196 28.4769 357.129 28.4125 357.051 28.385L356.967 28.3711C356.911 28.3711 356.857 28.3894 356.809 28.4243L356.435 28.642C356.399 28.6662 356.369 28.7009 356.346 28.7432C356.293 28.8231 356.27 28.929 356.285 29.0319C356.287 29.0837 356.299 29.134 356.322 29.1774C356.363 29.2656 356.43 29.3301 356.508 29.3572L356.591 29.3711C356.647 29.3713 356.701 29.353 356.749 29.3179" fill="#003849"/>
<path fill-rule="evenodd" clip-rule="evenodd" d="M82.6943 22.2961C79.4573 22.9111 76.2333 23.6071 73.0243 24.3551C71.7042 24.6631 70.3733 24.9611 69.0803 25.3671C68.7838 25.4324 68.5 25.5459 68.2402 25.7031C67.9531 26.0263 67.7951 26.4439 67.7963 26.8761C67.6016 28.4907 67.5254 30.1174 67.5682 31.7432C67.57 31.8531 67.6295 31.954 67.7249 32.0088C67.8203 32.0636 67.9374 32.0641 68.0333 32.0101C68.7661 31.4849 69.423 30.861 69.9853 30.1561C70.2948 29.7239 70.6547 29.3302 71.0573 28.9831C71.8397 28.4587 72.6638 27.9991 73.5212 27.6091C75.8373 26.4501 78.2073 25.4091 80.5212 24.2431C81.3947 23.856 82.2241 23.3762 82.9952 22.8121C83.3043 22.5611 82.8652 22.1261 82.5583 22.3741C81.8911 22.8561 81.1756 23.2673 80.4233 23.6011C79.3232 24.1581 78.2083 24.6841 77.0933 25.2101C74.9771 26.103 72.9241 27.1387 70.9484 28.3101C69.6753 29.1411 68.9973 30.6101 67.7203 31.4741L68.1853 31.7421C68.1853 30.3881 68.1993 29.0291 68.3203 27.6801C68.3533 27.3141 68.3613 26.4551 68.5853 26.2111C68.8245 26.0784 69.0829 25.9836 69.3513 25.9301C72.2313 25.0501 75.2233 24.4721 78.1653 23.8471C79.7263 23.5151 81.2903 23.1891 82.8593 22.8901C83.2493 22.8161 83.0843 22.2201 82.6943 22.2901" fill="#003849"/>
<path fill-rule="evenodd" clip-rule="evenodd" d="M70.626 29.4901C71.811 30.5901 72.79 31.8801 73.941 33.0111C74.43 33.4921 75.073 34.0251 75.65 33.3911C76.2538 32.6828 76.8192 31.9427 77.344 31.1741C78.275 29.8971 79.185 28.6061 80.085 27.3071C81.2144 25.6778 82.324 24.0351 83.414 22.3791C83.633 22.0451 83.098 21.7351 82.88 22.0671C80.821 25.2051 78.696 28.3081 76.468 31.3291C76.131 31.7861 75.793 32.2421 75.437 32.6841C75.17 33.0131 75.118 33.1911 74.729 32.8941C74.1651 32.4035 73.6488 31.8608 73.187 31.2731C72.507 30.5061 71.814 29.7521 71.063 29.0531C70.772 28.7821 70.333 29.2191 70.626 29.4911" fill="#003849"/>
<path fill-rule="evenodd" clip-rule="evenodd" d="M83.1477 21.9141C79.5237 21.7451 75.9008 21.5321 72.2727 21.4411C70.5277 21.3971 68.7727 21.3561 67.0287 21.4631C66.5287 21.4931 64.9657 21.4341 64.8547 22.1631C64.7547 22.8151 65.7457 23.7071 66.1217 24.1301C66.7607 24.8621 67.4405 25.5576 68.1577 26.2131C68.4527 26.4791 68.8907 26.0431 68.5947 25.7761C68.0347 25.2761 67.5097 24.7231 66.9947 24.1761C66.6947 23.8521 66.3947 23.5221 66.1157 23.1761C65.9817 23.0131 65.8497 22.8481 65.7307 22.6761C65.6642 22.533 65.5835 22.397 65.4897 22.2701C65.3527 22.1561 65.5277 22.3341 65.4307 22.3331C65.3937 22.3331 65.4777 22.3191 65.4607 22.3171C65.6383 22.2918 65.8129 22.2486 65.9817 22.1881C66.5177 22.1098 67.0581 22.0657 67.5997 22.0561C71.1267 21.9171 74.6777 22.1211 78.1997 22.2881C79.8487 22.3661 81.4997 22.4581 83.1477 22.5351C83.5477 22.5531 83.5477 21.9351 83.1477 21.9171" fill="#003849"/>
<path fill-rule="evenodd" clip-rule="evenodd" d="M52.5044 53.3091C56.3542 52.1437 59.2545 48.9605 60.0574 45.0191C60.355 43.492 60.0961 41.9088 59.3274 40.5561C58.5959 39.222 57.477 38.1411 56.1184 37.4561C54.951 36.8412 53.5287 36.9863 52.5094 37.8241C51.3224 38.8361 50.4094 40.8241 51.2284 42.3041C52.0724 43.8301 54.1284 44.1981 55.7144 44.1491C57.7994 44.0902 59.7766 43.2092 61.2144 41.6981C62.3614 40.4511 62.7694 38.7401 63.3054 37.1801C63.5539 36.3438 63.9362 35.5532 64.4374 34.8391C64.9922 34.0703 65.833 33.5571 66.7704 33.4151C66.9411 33.4151 67.0794 33.2768 67.0794 33.1061C67.0794 32.9355 66.941 32.7971 66.7704 32.7971C65.5177 32.9626 64.4055 33.6817 63.7404 34.7561C63.0853 35.9024 62.584 37.1299 62.2494 38.4071C61.8776 39.7853 61.1011 41.0205 60.0204 41.9531C58.3677 43.2573 56.2366 43.7936 54.1634 43.4271C52.5504 43.1271 51.0994 42.0041 51.6784 40.2121C52.1294 38.8211 53.3154 37.4771 54.8974 37.7121C56.2112 38.0202 57.3663 38.7999 58.1434 39.9031C59.0465 40.9667 59.5489 42.3129 59.5634 43.7081C59.5254 47.8491 56.1914 51.5441 52.3454 52.7151C51.9664 52.8301 52.1284 53.4271 52.5104 53.3151" fill="#003849"/>
<path fill-rule="evenodd" clip-rule="evenodd" d="M16.1807 116.166C34.2327 97.8661 56.9807 95.6411 80.9707 94.1571C78.2507 99.5971 66.6277 105.532 60.9397 108.5C55.3668 111.273 49.5778 113.589 43.6297 115.424C34.7297 117.65 25.3297 115.919 16.4297 116.166" fill="#D67676"/>
<path fill-rule="evenodd" clip-rule="evenodd" d="M17.0225 116.524C24.4636 113.767 31.8875 110.952 39.4296 108.479C46.7966 106.064 54.3215 104.254 61.7635 102.099C65.8007 100.971 69.7601 99.5817 73.6166 97.939C74.0535 97.7481 73.6765 97.1091 73.2426 97.2991C66.2896 100.339 58.8825 102.141 51.5765 104.099C44.0455 106.122 36.6495 108.545 29.3156 111.199C25.1415 112.707 20.9875 114.267 16.8256 115.809C16.3815 115.974 16.5745 116.691 17.0255 116.525" fill="#003849"/>
<path fill-rule="evenodd" clip-rule="evenodd" d="M35.3348 105.024C33.0448 107.296 30.0948 108.97 28.2288 111.652C28.1446 111.798 28.1683 111.982 28.2868 112.102C29.7398 113.364 31.7798 113.52 33.5198 114.176C33.9678 114.344 34.1608 113.628 33.7198 113.46C32.1198 112.86 30.1448 112.733 28.8148 111.577L28.8728 112.027C30.6938 109.408 33.6238 107.769 35.8629 105.549C36.0078 105.403 36.0071 105.168 35.8613 105.023C35.7155 104.878 35.4798 104.878 35.3348 105.024" fill="#003849"/>
<path fill-rule="evenodd" clip-rule="evenodd" d="M44.669 101.512C43.134 103.665 41.122 105.438 39.723 107.694C39.6661 107.794 39.6581 107.914 39.7015 108.021C39.7448 108.128 39.8345 108.208 39.945 108.24C43.056 109.004 46.316 109.103 49.345 110.218C49.794 110.383 49.987 109.666 49.545 109.502C46.519 108.387 43.259 108.289 40.145 107.524C40.219 107.706 40.292 107.888 40.367 108.07C41.767 105.816 43.777 104.039 45.313 101.888C45.59 101.498 44.947 101.128 44.672 101.513" fill="#003849"/>
<path fill-rule="evenodd" clip-rule="evenodd" d="M54.1948 99.41C53.3168 101.01 52.1118 102.604 51.8087 104.445C51.7611 104.642 51.8745 104.842 52.0677 104.902C53.8851 105.527 55.7444 106.023 57.6318 106.386C58.0978 106.479 58.2977 105.764 57.8317 105.67C55.9441 105.309 54.0847 104.813 52.2678 104.186C52.3531 104.338 52.4394 104.49 52.5267 104.642C52.8207 102.864 53.9897 101.331 54.8387 99.785C55.0687 99.366 54.4287 98.991 54.1978 99.41" fill="#003849"/>
<path fill-rule="evenodd" clip-rule="evenodd" d="M63.5518 98.263C63.127 99.3153 62.7556 100.388 62.4388 101.478C62.397 101.64 62.4665 101.81 62.6098 101.897C63.6819 102.356 64.7845 102.74 65.9098 103.047C66.3648 103.197 66.5588 102.481 66.1098 102.331C65.0443 102.045 63.9998 101.686 62.9838 101.256L63.1538 101.674C63.4708 100.584 63.8423 99.5115 64.2668 98.4591C64.4198 98.0051 63.7038 97.8111 63.5518 98.259" fill="#003849"/>
<path fill-rule="evenodd" clip-rule="evenodd" d="M48.699 101.7C48.3714 101.719 48.1152 101.99 48.1152 102.318C48.1152 102.646 48.3714 102.917 48.699 102.936C49.0267 102.917 49.2828 102.646 49.2828 102.318C49.2828 101.99 49.0267 101.719 48.699 101.7Z" fill="#003849"/>
<path fill-rule="evenodd" clip-rule="evenodd" d="M50.3074 99.9691C49.9798 99.9878 49.7236 100.259 49.7236 100.587C49.7236 100.915 49.9798 101.186 50.3074 101.205C50.6351 101.186 50.8912 100.915 50.8912 100.587C50.8912 100.259 50.6351 99.9878 50.3074 99.9691Z" fill="#003849"/>
<path fill-rule="evenodd" clip-rule="evenodd" d="M60.3221 103.431C59.9944 103.45 59.7383 103.721 59.7383 104.049C59.7383 104.377 59.9944 104.648 60.3221 104.667C60.6497 104.648 60.9058 104.377 60.9058 104.049C60.9058 103.721 60.6497 103.45 60.3221 103.431Z" fill="#003849"/>
<path fill-rule="evenodd" clip-rule="evenodd" d="M62.0535 104.42C61.7259 104.439 61.4697 104.71 61.4697 105.038C61.4697 105.366 61.7259 105.637 62.0535 105.656C62.3812 105.637 62.6373 105.366 62.6373 105.038C62.6373 104.71 62.3812 104.439 62.0535 104.42Z" fill="#003849"/>
<path fill-rule="evenodd" clip-rule="evenodd" d="M75.9012 96.1361C75.5735 96.1548 75.3174 96.4259 75.3174 96.7541C75.3174 97.0823 75.5735 97.3534 75.9012 97.3721C76.2288 97.3534 76.4849 97.0823 76.4849 96.7541C76.4849 96.4259 76.2288 96.1548 75.9012 96.1361Z" fill="#003849"/>
<path fill-rule="evenodd" clip-rule="evenodd" d="M1.19891 96.2161C0.456909 82.6161 1.19891 69.2611 9.60693 57.8861C16.778 48.4861 29.1429 40.8231 40.2709 37.3611C40.0239 49.7261 34.0889 65.5521 26.1709 74.9491C22.2117 79.5695 17.7336 83.7185 12.825 87.3141C9.36292 90.0341 5.65393 94.4851 1.2019 95.4751" fill="#5596A5"/>
<path fill-rule="evenodd" clip-rule="evenodd" d="M2.54669 94.0891C5.77258 86.6251 9.67944 79.4742 14.2176 72.7272C16.3437 69.4941 18.5957 66.3561 20.8027 63.1801C22.9397 60.1061 24.9267 56.9311 27.0367 53.8401C29.2715 50.3754 31.8915 47.1749 34.8467 44.3001C35.1987 43.9761 34.6717 43.4521 34.3217 43.7761C28.8587 48.8161 25.1437 55.4761 21.0117 61.5681C18.8297 64.7881 16.5257 67.9221 14.3667 71.1601C12.1267 74.5191 9.97467 77.9381 7.9787 81.4491C5.68414 85.4711 3.63153 89.6265 1.83173 93.893C1.64771 94.3321 2.36469 94.5241 2.54669 94.0931" fill="#003849"/>
<path fill-rule="evenodd" clip-rule="evenodd" d="M4.6626 76.8051C4.80695 79.8231 5.14099 82.829 5.6626 85.8051C5.70825 85.9653 5.85394 86.0764 6.02057 86.078C7.64191 86.1319 9.25891 85.8809 10.7876 85.338C12.3518 84.8538 13.8791 84.2576 15.3577 83.554C15.7896 83.354 15.4126 82.711 14.9836 82.914C13.5617 83.5881 12.0933 84.1592 10.5897 84.623C9.12506 85.1461 7.57489 85.388 6.02057 85.336L6.3786 85.609C5.86926 82.699 5.54333 79.7599 5.40259 76.809C5.38159 76.334 4.63959 76.331 4.66058 76.809" fill="#003849"/>
<path fill-rule="evenodd" clip-rule="evenodd" d="M11.2157 64.5631C11.4587 68.2501 10.5667 72.0491 11.5997 75.6631C11.6467 75.8224 11.7916 75.9329 11.9577 75.9361C13.8618 75.9391 15.7554 75.6532 17.5737 75.0881C19.4383 74.6127 21.2292 73.8846 22.8967 72.9241C23.3036 72.6761 22.9317 72.0341 22.5227 72.2841C20.9099 73.2165 19.1767 73.9231 17.3716 74.3841C15.6174 74.9311 13.7902 75.208 11.9527 75.2051L12.3107 75.4781C11.2987 71.9341 12.1907 68.1871 11.9527 64.5721C11.9217 64.0981 11.1797 64.0941 11.2107 64.5721" fill="#003849"/>
<path fill-rule="evenodd" clip-rule="evenodd" d="M17.6442 56.898C17.6442 58.166 17.5441 59.433 17.5251 60.698C17.4095 62.1969 17.5187 63.7045 17.8491 65.171C17.9283 65.598 18.2076 65.9611 18.6002 66.147C19.0734 66.2982 19.5728 66.3503 20.0671 66.3C21.6254 66.1921 23.1713 65.9482 24.6871 65.571C26.0872 65.262 27.4781 64.897 28.8712 64.548C29.0612 64.4867 29.1689 64.2863 29.1152 64.0939C29.0615 63.9016 28.8655 63.786 28.6711 63.832C26.1231 64.5634 23.5276 65.1181 20.9031 65.492C20.2301 65.565 18.8761 65.861 18.5952 65.077C18.2562 63.7487 18.1437 62.3728 18.2621 61.007C18.2722 59.636 18.3781 58.266 18.3842 56.896C18.3842 56.6911 18.218 56.525 18.0131 56.525C17.8082 56.525 17.6422 56.6911 17.6422 56.896" fill="#003849"/>
<path fill-rule="evenodd" clip-rule="evenodd" d="M24.4458 48.366C24.4388 49.5591 24.2778 50.7511 24.2388 51.944C24.0752 53.1406 24.2173 54.3592 24.6518 55.4861C25.1448 56.3741 26.3378 56.1951 27.1797 56.0591C28.5916 55.7954 29.9758 55.4014 31.3148 54.882C32.5668 54.431 33.8148 53.94 35.0148 53.382C35.4478 53.1821 35.0718 52.543 34.6407 52.742C32.4759 53.7667 30.2153 54.5756 27.8918 55.157C27.3639 55.2942 26.8241 55.381 26.2798 55.416C25.9878 55.4281 25.5728 55.4621 25.3588 55.2251C25.1246 54.8342 25.0043 54.3856 25.0118 53.9301C24.9604 53.3078 24.9474 52.6829 24.9728 52.0591C25.0078 50.827 25.1728 49.5961 25.1838 48.364C25.1838 48.1591 25.0176 47.993 24.8127 47.993C24.6078 47.993 24.4418 48.1591 24.4418 48.364" fill="#003849"/>
<path fill-rule="evenodd" clip-rule="evenodd" d="M19.1287 52.3231C18.801 52.3418 18.5449 52.6129 18.5449 52.9411C18.5449 53.2693 18.801 53.5405 19.1287 53.5591C19.4564 53.5404 19.7125 53.2693 19.7125 52.9411C19.7125 52.6129 19.4564 52.3418 19.1287 52.3231Z" fill="#003849"/>
<path fill-rule="evenodd" clip-rule="evenodd" d="M20.8592 50.4641C20.5315 50.4828 20.2754 50.7539 20.2754 51.0821C20.2754 51.4103 20.5315 51.6815 20.8592 51.7001C21.1868 51.6814 21.4429 51.4103 21.4429 51.0821C21.4429 50.7539 21.1868 50.4828 20.8592 50.4641Z" fill="#003849"/>
<path fill-rule="evenodd" clip-rule="evenodd" d="M21.3533 53.0641C21.0256 53.0827 20.7695 53.3539 20.7695 53.6821C20.7695 54.0103 21.0256 54.2814 21.3533 54.3001C21.681 54.2814 21.9371 54.0103 21.9371 53.6821C21.9371 53.3539 21.681 53.0828 21.3533 53.0641Z" fill="#003849"/>
<path fill-rule="evenodd" clip-rule="evenodd" d="M29.0193 59.9891C28.6917 60.0078 28.4355 60.2789 28.4355 60.6071C28.4355 60.9353 28.6917 61.2065 29.0193 61.2251C29.347 61.2064 29.6031 60.9353 29.6031 60.6071C29.6031 60.279 29.347 60.0078 29.0193 59.9891Z" fill="#003849"/>
<path fill-rule="evenodd" clip-rule="evenodd" d="M30.7508 57.6351C30.4231 57.6538 30.167 57.9249 30.167 58.2531C30.167 58.5813 30.4231 58.8525 30.7508 58.8711C31.0784 58.8524 31.3345 58.5813 31.3345 58.2531C31.3345 57.925 31.0784 57.6538 30.7508 57.6351Z" fill="#003849"/>
<path fill-rule="evenodd" clip-rule="evenodd" d="M31.616 60.2361C31.2883 60.2547 31.0322 60.5259 31.0322 60.8541C31.0322 61.1823 31.2883 61.4534 31.616 61.4721C31.9437 61.4534 32.1998 61.1823 32.1998 60.8541C32.1998 60.5259 31.9437 60.2548 31.616 60.2361Z" fill="#003849"/>
<path fill-rule="evenodd" clip-rule="evenodd" d="M15.4187 78.4081C15.0911 78.4268 14.835 78.6979 14.835 79.0261C14.835 79.3542 15.0911 79.6254 15.4187 79.6441C15.7463 79.6254 16.0024 79.3542 16.0024 79.0261C16.0024 78.6979 15.7463 78.4268 15.4187 78.4081Z" fill="#003849"/>
<path fill-rule="evenodd" clip-rule="evenodd" d="M18.0154 77.6661C17.6877 77.6848 17.4316 77.956 17.4316 78.2841C17.4316 78.6123 17.6877 78.8835 18.0154 78.9021C18.343 78.8835 18.5991 78.6123 18.5991 78.2841C18.5991 77.956 18.343 77.6848 18.0154 77.6661Z" fill="#003849"/>
<path fill-rule="evenodd" clip-rule="evenodd" d="M6.88745 70.1281C6.55981 70.1467 6.30371 70.4179 6.30371 70.746C6.30371 71.0742 6.55981 71.3454 6.88745 71.364C7.21509 71.3454 7.47119 71.0742 7.47119 70.746C7.47119 70.4179 7.21509 70.1467 6.88745 70.1281Z" fill="#003849"/>
<path fill-rule="evenodd" clip-rule="evenodd" d="M7.38159 67.28C7.05396 67.2987 6.79785 67.5699 6.79785 67.898C6.79785 68.2262 7.05396 68.4973 7.38159 68.516C7.70923 68.4973 7.96533 68.2262 7.96533 67.898C7.96533 67.5699 7.70923 67.2987 7.38159 67.28Z" fill="#003849"/>
<path fill-rule="evenodd" clip-rule="evenodd" d="M36.8094 45.6461C36.4817 45.6648 36.2256 45.9359 36.2256 46.2641C36.2256 46.5923 36.4817 46.8635 36.8094 46.8821C37.137 46.8634 37.3931 46.5923 37.3931 46.2641C37.3931 45.9359 37.137 45.6648 36.8094 45.6461Z" fill="#003849"/>
<path fill-rule="evenodd" clip-rule="evenodd" d="M0.482361 116.288C0.095398 108.802 -0.729614 92.4371 1.13336 84.9741C4.63336 72.6271 9.52637 80.1591 11.2334 88.4541C15.7474 74.4621 21.1204 60.5451 27.9434 79.6851C30.3434 77.9851 38.7544 65.0301 42.8584 71.6271C44.3584 74.3571 36.8494 82.8891 35.2334 85.5211C40.3934 85.9701 51.2454 86.7441 44.0194 94.0861C40.4064 97.7571 32.5194 98.8021 27.9904 101.007C33.4574 103.907 41.7574 108.101 31.8464 112.436C25.3244 115.679 7.64636 115.698 0.486389 116.287" fill="#003849"/>
<path fill-rule="evenodd" clip-rule="evenodd" d="M1.38965 117.179C11.6067 106.371 21.6107 95.3521 31.1656 83.9511C33.8083 80.7984 36.4127 77.6141 38.9786 74.3981C39.4697 73.7821 38.5997 72.8981 38.1036 73.5241C28.8397 85.1471 19.0306 96.3301 8.96167 107.259C6.16632 110.293 3.35101 113.308 0.515686 116.305C-0.0303345 116.883 0.842651 117.759 1.39069 117.179" fill="#5596A5"/>
<path fill-rule="evenodd" clip-rule="evenodd" d="M20.8595 78.659C20.8485 83.77 20.1215 88.884 20.6125 93.991C20.6244 94.3273 20.8942 94.5972 21.2305 94.609C26.5175 95.109 31.7755 93.884 37.0575 93.867C37.3851 93.8483 37.6412 93.5772 37.6412 93.249C37.6412 92.9209 37.3851 92.6497 37.0575 92.631C31.7755 92.648 26.5175 93.876 21.2305 93.373L21.8485 93.991C21.3575 88.884 22.0845 83.769 22.0955 78.659C22.0768 78.3314 21.8057 78.0752 21.4775 78.0752C21.1493 78.0752 20.8782 78.3314 20.8595 78.659Z" fill="#5596A5"/>
<path fill-rule="evenodd" clip-rule="evenodd" d="M7.0072 93.0021C7.0072 98.3161 6.69019 103.753 7.77118 108.993C7.84662 109.262 8.09198 109.448 8.37122 109.447C13.8652 109.208 19.3902 109.692 24.8572 108.93C25.6412 108.821 25.3082 107.63 24.5282 107.738C19.1802 108.483 13.7482 107.976 8.37122 108.21L8.97119 108.664C7.91418 103.54 8.24817 98.1991 8.25116 93.002C8.23254 92.6744 7.96136 92.4182 7.63318 92.4182C7.30499 92.4182 7.03381 92.6744 7.0152 93.002" fill="#5596A5"/>
<path fill-rule="evenodd" clip-rule="evenodd" d="M17.0255 87.129C16.525 87.1455 16.1279 87.5559 16.1279 88.0565C16.1279 88.5572 16.525 88.9676 17.0254 88.984C17.5258 88.9676 17.9229 88.5572 17.9229 88.0565C17.9229 87.5559 17.5258 87.1455 17.0255 87.129" fill="#5596A5"/>
<path fill-rule="evenodd" clip-rule="evenodd" d="M17.0255 82.4301C16.525 82.4465 16.1279 82.8569 16.1279 83.3576C16.1279 83.8582 16.525 84.2686 17.0254 84.285C17.5258 84.2686 17.9229 83.8582 17.9229 83.3576C17.9229 82.8569 17.5258 82.4465 17.0255 82.4301" fill="#5596A5"/>
<path fill-rule="evenodd" clip-rule="evenodd" d="M25.4336 83.1721C24.9332 83.1886 24.5361 83.599 24.5361 84.0996C24.5361 84.6003 24.9332 85.0107 25.4336 85.0271C25.934 85.0107 26.3311 84.6003 26.3311 84.0996C26.3311 83.599 25.934 83.1886 25.4337 83.1721" fill="#5596A5"/>
<path fill-rule="evenodd" clip-rule="evenodd" d="M37.7979 88.3651C37.2975 88.3816 36.9004 88.792 36.9004 89.2926C36.9004 89.7933 37.2975 90.2036 37.7979 90.2201C38.2982 90.2036 38.6954 89.7933 38.6954 89.2926C38.6954 88.792 38.2982 88.3816 37.7979 88.3651" fill="#5596A5"/>
<path fill-rule="evenodd" clip-rule="evenodd" d="M41.5068 89.8491C41.0065 89.8656 40.6094 90.276 40.6094 90.7766C40.6094 91.2773 41.0065 91.6877 41.5068 91.7041C42.0072 91.6877 42.4044 91.2773 42.4044 90.7766C42.4044 90.276 42.0072 89.8656 41.5068 89.8491" fill="#5596A5"/>
<path fill-rule="evenodd" clip-rule="evenodd" d="M21.4766 101.472C20.9762 101.489 20.5791 101.899 20.5791 102.4C20.5791 102.9 20.9762 103.311 21.4766 103.327C21.977 103.311 22.3741 102.9 22.3741 102.4C22.3741 101.899 21.977 101.489 21.4766 101.472" fill="#5596A5"/>
<path fill-rule="evenodd" clip-rule="evenodd" d="M31.6152 106.418C31.1149 106.435 30.7178 106.845 30.7178 107.346C30.7178 107.846 31.1149 108.257 31.6152 108.273C32.1156 108.257 32.5128 107.846 32.5128 107.346C32.5128 106.845 32.1157 106.435 31.6153 106.418" fill="#5596A5"/>
<path fill-rule="evenodd" clip-rule="evenodd" d="M6.88672 84.9031C6.38635 84.9196 5.98926 85.3299 5.98926 85.8306C5.98926 86.3312 6.38635 86.7416 6.88672 86.7581C7.38708 86.7416 7.78424 86.3312 7.78424 85.8306C7.78424 85.3299 7.38708 84.9196 6.88672 84.9031" fill="#5596A5"/>
<path fill-rule="evenodd" clip-rule="evenodd" d="M3.91895 102.708C3.41858 102.725 3.02148 103.135 3.02148 103.636C3.02148 104.136 3.41858 104.547 3.91895 104.563C4.41937 104.547 4.81647 104.136 4.81647 103.636C4.81647 103.135 4.41937 102.725 3.91895 102.708" fill="#5596A5"/>
<path fill-rule="evenodd" clip-rule="evenodd" d="M358.569 116.166C340.517 97.8661 317.769 95.6411 293.779 94.1571C296.499 99.5971 308.122 105.532 313.81 108.5C319.383 111.273 325.172 113.589 331.12 115.424C340.02 117.65 349.42 115.919 358.32 116.166" fill="#FFD066"/>
<path fill-rule="evenodd" clip-rule="evenodd" d="M357.927 115.808C350.486 113.052 343.062 110.236 335.52 107.764C328.26 105.385 320.851 103.589 313.514 101.479C309.426 100.352 305.417 98.9552 301.514 97.2991C301.081 97.1101 300.702 97.7491 301.14 97.9391C308.016 100.946 315.318 102.766 322.546 104.701C330.188 106.748 337.693 109.187 345.133 111.873C349.344 113.394 353.533 114.968 357.733 116.523C358.181 116.689 358.374 115.972 357.933 115.807" fill="#003849"/>
<path fill-rule="evenodd" clip-rule="evenodd" d="M338.896 105.547C341.134 107.767 344.064 109.406 345.886 112.026L345.944 111.576C344.614 112.732 342.635 112.858 341.038 113.459C340.596 113.626 340.787 114.343 341.238 114.175C342.979 113.52 345.018 113.364 346.472 112.101C346.59 111.981 346.614 111.797 346.53 111.651C344.664 108.968 341.714 107.295 339.424 105.023C339.279 104.878 339.044 104.878 338.899 105.023C338.754 105.168 338.754 105.403 338.899 105.548" fill="#003849"/>
<path fill-rule="evenodd" clip-rule="evenodd" d="M329.441 101.887C330.976 104.039 332.99 105.815 334.387 108.069L334.609 107.523C331.498 108.288 328.238 108.387 325.209 109.501C324.765 109.665 324.957 110.382 325.409 110.217C328.435 109.102 331.695 109.003 334.809 108.239C334.919 108.207 335.009 108.127 335.052 108.02C335.096 107.914 335.088 107.793 335.031 107.693C333.631 105.437 331.62 103.664 330.085 101.511C329.81 101.126 329.166 101.496 329.444 101.886" fill="#003849"/>
<path fill-rule="evenodd" clip-rule="evenodd" d="M319.92 99.7851C320.769 101.331 321.938 102.864 322.232 104.642L322.491 104.186C320.674 104.813 318.814 105.309 316.927 105.67C316.46 105.764 316.657 106.48 317.127 106.386C319.014 106.024 320.874 105.528 322.691 104.902C322.883 104.842 322.996 104.643 322.95 104.446C322.65 102.605 321.442 101.012 320.564 99.4111C320.334 98.9931 319.693 99.3661 319.923 99.7861" fill="#003849"/>
<path fill-rule="evenodd" clip-rule="evenodd" d="M310.484 98.4601C310.909 99.5125 311.28 100.586 311.597 101.675L311.768 101.256C310.752 101.686 309.707 102.046 308.641 102.331C308.19 102.48 308.383 103.197 308.841 103.047C309.967 102.74 311.069 102.356 312.141 101.897C312.284 101.811 312.354 101.641 312.311 101.479C311.995 100.389 311.624 99.3162 311.198 98.2641C311.047 97.8131 310.329 98.0071 310.483 98.4641" fill="#003849"/>
<path fill-rule="evenodd" clip-rule="evenodd" d="M326.052 101.7C326.379 101.719 326.635 101.99 326.635 102.318C326.635 102.646 326.379 102.917 326.052 102.936C325.724 102.917 325.468 102.646 325.468 102.318C325.468 101.99 325.724 101.719 326.052 101.7Z" fill="#003849"/>
<path fill-rule="evenodd" clip-rule="evenodd" d="M324.443 99.9691C324.771 99.9878 325.027 100.259 325.027 100.587C325.027 100.915 324.771 101.186 324.443 101.205C324.115 101.186 323.859 100.915 323.859 100.587C323.859 100.259 324.115 99.9878 324.443 99.9691Z" fill="#003849"/>
<path fill-rule="evenodd" clip-rule="evenodd" d="M314.429 103.431C314.756 103.45 315.012 103.721 315.012 104.049C315.012 104.377 314.756 104.648 314.429 104.667C314.101 104.648 313.845 104.377 313.845 104.049C313.845 103.721 314.101 103.45 314.429 103.431Z" fill="#003849"/>
<path fill-rule="evenodd" clip-rule="evenodd" d="M312.697 104.42C313.025 104.439 313.281 104.71 313.281 105.038C313.281 105.366 313.025 105.637 312.697 105.656C312.37 105.637 312.113 105.366 312.113 105.038C312.113 104.71 312.37 104.439 312.697 104.42Z" fill="#003849"/>
<path fill-rule="evenodd" clip-rule="evenodd" d="M298.849 96.1361C299.177 96.1548 299.433 96.4259 299.433 96.7541C299.433 97.0823 299.177 97.3534 298.849 97.3721C298.522 97.3534 298.266 97.0823 298.266 96.7541C298.266 96.4259 298.522 96.1548 298.849 96.1361Z" fill="#003849"/>
<path fill-rule="evenodd" clip-rule="evenodd" d="M373.552 96.2161C374.294 82.6161 373.552 69.2611 365.143 57.8861C357.972 48.4861 345.608 40.8231 334.479 37.3611C334.726 49.7261 340.661 65.5521 348.579 74.9491C352.541 79.5699 357.022 83.7189 361.933 87.3141C365.395 90.0341 369.105 94.4851 373.557 95.4751" fill="#5596A5"/>
<path fill-rule="evenodd" clip-rule="evenodd" d="M372.92 93.8931C369.691 86.4013 365.779 79.222 361.236 72.4461C359.074 69.1531 356.777 65.9601 354.536 62.7251C352.381 59.6201 350.376 56.4131 348.236 53.2951C345.998 49.8395 343.379 46.6465 340.428 43.7762C340.078 43.4531 339.552 43.9761 339.903 44.3001C345.346 49.3221 349.033 55.9561 353.154 62.0261C355.3 65.1861 357.56 68.2651 359.681 71.4421C361.902 74.7701 364.038 78.1561 366.021 81.6311C368.331 85.6556 370.395 89.8159 372.203 94.0893C372.385 94.5231 373.103 94.3331 372.918 93.8891" fill="#003849"/>
<path fill-rule="evenodd" clip-rule="evenodd" d="M369.349 76.8051C369.208 79.756 368.882 82.6952 368.373 85.6052L368.731 85.3321C367.177 85.3839 365.627 85.142 364.163 84.6191C362.659 84.1552 361.191 83.5841 359.769 82.9101C359.34 82.7101 358.962 83.3471 359.395 83.5501C360.873 84.2537 362.401 84.8499 363.965 85.3341C365.493 85.8768 367.11 86.1278 368.731 86.0741C368.897 86.0712 369.042 85.9606 369.089 85.8011C369.61 82.825 369.944 79.8191 370.089 76.8011C370.111 76.3241 369.369 76.3251 369.347 76.8011" fill="#003849"/>
<path fill-rule="evenodd" clip-rule="evenodd" d="M362.794 64.5631C362.557 68.1781 363.449 71.9251 362.436 75.4691L362.794 75.1961C360.957 75.199 359.129 74.9221 357.375 74.3751C355.57 73.9143 353.837 73.2077 352.224 72.2751C351.816 72.0261 351.442 72.6671 351.85 72.9151C353.519 73.8784 355.311 74.6089 357.178 75.0861C358.996 75.6513 360.89 75.9372 362.794 75.9341C362.96 75.9305 363.105 75.8202 363.152 75.6611C364.185 72.0451 363.293 68.2441 363.536 64.5611C363.567 64.0841 362.825 64.0861 362.794 64.5611" fill="#003849"/>
<path fill-rule="evenodd" clip-rule="evenodd" d="M356.365 56.898C356.365 58.063 356.457 59.229 356.479 60.398C356.577 61.8405 356.502 63.2894 356.255 64.714C356.18 65.045 356.121 65.381 355.806 65.49C355.33 65.6013 354.837 65.6199 354.354 65.545C352.854 65.4017 351.367 65.1467 349.905 64.782C348.623 64.493 347.353 64.158 346.078 63.838C345.884 63.792 345.688 63.9076 345.634 64.0999C345.58 64.2923 345.688 64.4927 345.878 64.554C348.602 65.3507 351.386 65.9263 354.202 66.275C355.086 66.35 356.348 66.475 356.777 65.509C357.198 64.177 357.352 62.7747 357.228 61.383C357.228 59.883 357.111 58.395 357.104 56.901C357.104 56.6961 356.938 56.53 356.733 56.53C356.528 56.53 356.362 56.6961 356.362 56.901" fill="#003849"/>
<path fill-rule="evenodd" clip-rule="evenodd" d="M349.564 48.366C349.571 49.424 349.708 50.482 349.756 51.539C349.925 52.7025 349.84 53.8885 349.507 55.0161C349.186 55.742 347.913 55.381 347.325 55.262C346.012 54.9733 344.723 54.5869 343.467 54.106C342.332 53.693 341.205 53.248 340.107 52.744C339.676 52.5441 339.299 53.185 339.733 53.384C342.077 54.5171 344.541 55.3835 347.077 55.967C347.877 56.134 349.258 56.467 349.908 55.759C350.635 54.971 350.538 53.446 350.526 52.459C350.51 51.09 350.316 49.728 350.307 48.359C350.307 48.1541 350.141 47.988 349.936 47.988C349.731 47.988 349.565 48.1541 349.565 48.359" fill="#003849"/>
<path fill-rule="evenodd" clip-rule="evenodd" d="M355.623 52.3231C355.951 52.3418 356.207 52.6129 356.207 52.9411C356.207 53.2693 355.951 53.5405 355.623 53.5591C355.295 53.5404 355.039 53.2693 355.039 52.9411C355.039 52.6129 355.295 52.3418 355.623 52.3231Z" fill="#003849"/>
<path fill-rule="evenodd" clip-rule="evenodd" d="M353.891 50.4641C354.219 50.4828 354.475 50.7539 354.475 51.0821C354.475 51.4103 354.219 51.6815 353.891 51.7001C353.564 51.6814 353.308 51.4103 353.308 51.0821C353.308 50.7539 353.564 50.4828 353.891 50.4641Z" fill="#003849"/>
<path fill-rule="evenodd" clip-rule="evenodd" d="M353.397 53.0641C353.725 53.0827 353.981 53.3539 353.981 53.6821C353.981 54.0103 353.725 54.2814 353.397 54.3001C353.07 54.2814 352.813 54.0103 352.813 53.6821C352.813 53.3539 353.07 53.0828 353.397 53.0641Z" fill="#003849"/>
<path fill-rule="evenodd" clip-rule="evenodd" d="M345.731 59.9891C346.059 60.0078 346.315 60.2789 346.315 60.6071C346.315 60.9353 346.059 61.2065 345.731 61.2251C345.404 61.2064 345.147 60.9353 345.147 60.6071C345.147 60.279 345.404 60.0078 345.731 59.9891Z" fill="#003849"/>
<path fill-rule="evenodd" clip-rule="evenodd" d="M344 57.6351C344.328 57.6538 344.584 57.9249 344.584 58.2531C344.584 58.5813 344.328 58.8525 344 58.8711C343.672 58.8524 343.416 58.5813 343.416 58.2531C343.416 57.925 343.672 57.6538 344 57.6351Z" fill="#003849"/>
<path fill-rule="evenodd" clip-rule="evenodd" d="M343.135 60.2361C343.462 60.2547 343.719 60.5259 343.719 60.8541C343.719 61.1823 343.462 61.4534 343.135 61.4721C342.807 61.4534 342.551 61.1823 342.551 60.8541C342.551 60.5259 342.807 60.2548 343.135 60.2361Z" fill="#003849"/>
<path fill-rule="evenodd" clip-rule="evenodd" d="M359.332 78.4081C359.66 78.4268 359.916 78.6979 359.916 79.0261C359.916 79.3542 359.66 79.6254 359.332 79.6441C359.004 79.6254 358.748 79.3542 358.748 79.0261C358.748 78.6979 359.004 78.4268 359.332 78.4081Z" fill="#003849"/>
<path fill-rule="evenodd" clip-rule="evenodd" d="M356.735 77.6661C357.063 77.6848 357.319 77.956 357.319 78.2841C357.319 78.6123 357.063 78.8835 356.735 78.9021C356.407 78.8835 356.151 78.6123 356.151 78.2841C356.151 77.956 356.407 77.6848 356.735 77.6661Z" fill="#003849"/>
<path fill-rule="evenodd" clip-rule="evenodd" d="M367.863 70.1281C368.191 70.1467 368.447 70.4179 368.447 70.746C368.447 71.0742 368.191 71.3454 367.863 71.364C367.536 71.3454 367.279 71.0742 367.279 70.746C367.279 70.4179 367.536 70.1467 367.863 70.1281Z" fill="#003849"/>
<path fill-rule="evenodd" clip-rule="evenodd" d="M367.369 67.28C367.697 67.2987 367.953 67.5699 367.953 67.898C367.953 68.2262 367.697 68.4973 367.369 68.516C367.041 68.4973 366.785 68.2262 366.785 67.898C366.785 67.5699 367.041 67.2987 367.369 67.28Z" fill="#003849"/>
<path fill-rule="evenodd" clip-rule="evenodd" d="M337.941 45.6461C338.269 45.6648 338.525 45.9359 338.525 46.2641C338.525 46.5923 338.269 46.8635 337.941 46.8821C337.614 46.8634 337.357 46.5923 337.357 46.2641C337.357 45.9359 337.614 45.6648 337.941 45.6461Z" fill="#003849"/>
<path fill-rule="evenodd" clip-rule="evenodd" d="M374.268 116.288C374.656 108.802 375.481 92.4371 373.617 84.9741C370.117 72.6271 365.224 80.1591 363.517 88.4541C359.004 74.4621 353.629 60.5451 346.807 79.6851C344.407 77.9851 335.996 65.0301 331.891 71.6271C330.397 74.3571 337.9 82.8891 339.517 85.5211C334.356 85.9701 323.505 86.7441 330.731 94.0861C334.344 97.7571 342.231 98.8021 346.761 101.007C341.295 103.907 332.994 108.101 342.905 112.436C349.427 115.679 367.105 115.698 374.265 116.287" fill="#003849"/>
<path fill-rule="evenodd" clip-rule="evenodd" d="M374.237 116.305C364.02 105.496 354.016 94.4771 344.461 83.0761C341.818 79.9235 339.214 76.7391 336.649 73.5231C336.149 72.9011 335.283 73.7811 335.774 74.3971C345.039 86.0201 354.848 97.2021 364.916 108.132C367.712 111.166 370.527 114.181 373.362 117.178C373.91 117.757 374.783 116.878 374.237 116.304" fill="#5596A5"/>
<path fill-rule="evenodd" clip-rule="evenodd" d="M352.655 78.6591C352.666 83.7701 353.393 88.8841 352.902 93.9911L353.52 93.3731C348.233 93.8731 342.975 92.6481 337.693 92.6311C337.366 92.6498 337.109 92.9209 337.109 93.2491C337.109 93.5773 337.366 93.8484 337.693 93.8671C342.975 93.8841 348.233 95.1121 353.52 94.6091C353.857 94.5977 354.127 94.3276 354.138 93.9911C354.629 88.8841 353.902 83.7691 353.891 78.6591C353.873 78.3314 353.601 78.0751 353.273 78.0751C352.945 78.0751 352.674 78.3314 352.655 78.6591Z" fill="#5596A5"/>
<path fill-rule="evenodd" clip-rule="evenodd" d="M366.503 93.0021C366.503 98.2021 366.84 103.541 365.783 108.664L366.383 108.21C361.006 107.976 355.575 108.483 350.227 107.738C349.448 107.629 349.112 108.821 349.898 108.93C355.365 109.692 360.89 109.208 366.383 109.447C366.663 109.448 366.908 109.262 366.983 108.993C368.064 103.753 367.75 98.3161 367.747 93.0021C367.729 92.6744 367.458 92.4181 367.129 92.4181C366.801 92.4181 366.53 92.6744 366.511 93.0021" fill="#5596A5"/>
<path fill-rule="evenodd" clip-rule="evenodd" d="M357.726 87.129C358.226 87.1455 358.623 87.5559 358.623 88.0565C358.623 88.5572 358.226 88.9676 357.726 88.984C357.225 88.9676 356.828 88.5572 356.828 88.0565C356.828 87.5559 357.225 87.1455 357.726 87.129" fill="#5596A5"/>
<path fill-rule="evenodd" clip-rule="evenodd" d="M357.726 82.4301C358.226 82.4465 358.623 82.8569 358.623 83.3576C358.623 83.8582 358.226 84.2686 357.726 84.285C357.225 84.2686 356.828 83.8582 356.828 83.3576C356.828 82.8569 357.225 82.4465 357.726 82.4301" fill="#5596A5"/>
<path fill-rule="evenodd" clip-rule="evenodd" d="M349.317 83.1721C349.818 83.1886 350.215 83.599 350.215 84.0996C350.215 84.6003 349.818 85.0107 349.317 85.0271C348.817 85.0107 348.42 84.6003 348.42 84.0996C348.42 83.599 348.817 83.1886 349.317 83.1721" fill="#5596A5"/>
<path fill-rule="evenodd" clip-rule="evenodd" d="M336.952 88.3651C337.453 88.3816 337.85 88.792 337.85 89.2926C337.85 89.7933 337.453 90.2036 336.952 90.2201C336.452 90.2036 336.055 89.7933 336.055 89.2926C336.055 88.792 336.452 88.3816 336.952 88.3651" fill="#5596A5"/>
<path fill-rule="evenodd" clip-rule="evenodd" d="M333.243 89.8491C333.743 89.8656 334.141 90.276 334.141 90.7766C334.141 91.2773 333.743 91.6877 333.243 91.7041C332.743 91.6877 332.346 91.2773 332.346 90.7766C332.346 90.276 332.743 89.8656 333.243 89.8491" fill="#5596A5"/>
<path fill-rule="evenodd" clip-rule="evenodd" d="M353.274 101.472C353.775 101.489 354.172 101.899 354.172 102.4C354.172 102.9 353.775 103.311 353.274 103.327C352.774 103.311 352.377 102.9 352.377 102.4C352.377 101.899 352.774 101.489 353.274 101.472" fill="#5596A5"/>
<path fill-rule="evenodd" clip-rule="evenodd" d="M343.136 106.418C343.636 106.435 344.033 106.845 344.033 107.346C344.033 107.846 343.636 108.257 343.136 108.273C342.635 108.257 342.238 107.846 342.238 107.346C342.238 106.845 342.635 106.435 343.136 106.418" fill="#5596A5"/>
<path fill-rule="evenodd" clip-rule="evenodd" d="M367.864 84.9031C368.365 84.9196 368.762 85.3299 368.762 85.8306C368.762 86.3312 368.365 86.7416 367.864 86.7581C367.364 86.7416 366.967 86.3312 366.967 85.8306C366.967 85.3299 367.364 84.9196 367.864 84.9031" fill="#5596A5"/>
<path fill-rule="evenodd" clip-rule="evenodd" d="M370.831 102.708C371.331 102.725 371.729 103.135 371.729 103.636C371.729 104.136 371.331 104.547 370.831 104.563C370.331 104.547 369.934 104.136 369.934 103.636C369.934 103.135 370.331 102.725 370.831 102.708" fill="#5596A5"/>
<path fill-rule="evenodd" clip-rule="evenodd" d="M160.703 117.237C160.332 111.797 159.467 106.851 161.198 101.537C161.693 100.177 162.929 95.478 165.031 96.468C166.515 97.086 166.267 101.043 166.762 102.279C168.988 99.806 168.988 95.479 171.708 93.2531C175.417 90.0381 174.181 95.8531 174.308 97.953C176.781 96.84 180.614 89.298 183.952 90.4111C187.043 91.5241 179.377 98.6951 178.512 100.179C179.996 100.426 181.603 99.4371 183.212 99.5611C185.561 99.6851 186.427 101.168 184.201 102.652C181.852 104.012 175.793 103.888 174.801 106.852C176.285 107.594 182.838 105.986 182.467 109.201C182.096 111.55 176.161 111.921 174.43 112.416C169.608 113.652 165.53 115.631 161.076 117.609" fill="#4094A8"/>
<path fill-rule="evenodd" clip-rule="evenodd" d="M161.216 117.269C165.759 110.345 172.003 104.846 177.525 98.7461C179.044 97.0681 180.503 95.3371 181.865 93.5291C182.104 93.2111 181.565 92.9021 181.331 93.2171C176.372 99.8031 170.057 105.186 164.773 111.491C163.304 113.232 161.938 115.057 160.682 116.957C160.463 117.291 160.999 117.601 161.216 117.269" fill="#003849"/>
<path fill-rule="evenodd" clip-rule="evenodd" d="M170.914 97.1231C170.218 99.9389 169.923 102.839 170.038 105.737C170.04 105.833 170.085 105.923 170.161 105.982C170.238 106.04 170.337 106.061 170.43 106.037C174.243 105.229 177.769 103.477 181.43 102.204C181.803 102.074 181.642 101.477 181.265 101.604C177.6 102.877 174.073 104.629 170.265 105.437L170.656 105.737C170.541 102.895 170.829 100.05 171.511 97.2881C171.588 96.9001 170.992 96.7331 170.911 97.1241" fill="#003849"/>
<path fill-rule="evenodd" clip-rule="evenodd" d="M163.856 102.276C164.201 105.562 164.367 108.864 164.351 112.168C164.351 112.265 164.396 112.356 164.473 112.414C164.55 112.473 164.649 112.493 164.743 112.468C168.484 111.364 172.281 110.456 176.118 109.748C176.508 109.674 176.343 109.078 175.953 109.148C172.116 109.857 168.319 110.765 164.578 111.868L164.969 112.168C164.985 108.864 164.819 105.561 164.474 102.276C164.444 101.882 163.826 101.876 163.856 102.276Z" fill="#003849"/>
<path fill-rule="evenodd" clip-rule="evenodd" d="M140.731 81.2301C155.419 87.6891 164.383 105.769 161.498 118.695C143.713 113.73 141.031 96.5881 140.731 81.2301Z" fill="#003849"/>
<path fill-rule="evenodd" clip-rule="evenodd" d="M144.239 86.4821C148.739 94.6311 152.379 103.207 156.639 111.475C157.839 113.81 159.1 116.119 160.433 118.383C160.519 118.531 160.708 118.58 160.856 118.494C161.003 118.408 161.053 118.219 160.967 118.071C156.251 110.063 152.561 101.52 148.436 93.2061C147.26 90.8361 146.047 88.4861 144.769 86.1701C144.577 85.8221 144.042 86.1331 144.235 86.4821" fill="#4094A8"/>
<path fill-rule="evenodd" clip-rule="evenodd" d="M144.299 93.9181C145.978 94.5695 147.607 95.3442 149.171 96.2361C149.255 96.2834 149.355 96.2899 149.444 96.2538C149.532 96.2178 149.6 96.1431 149.626 96.0511C150.026 94.1131 149.757 92.1131 150.007 90.1581C150.058 89.7651 149.439 89.7681 149.389 90.1581C149.146 92.0581 149.42 94.0071 149.029 95.8871L149.483 95.7021C147.872 94.7859 146.194 93.9904 144.464 93.3221C144.089 93.1861 143.927 93.7841 144.299 93.9221" fill="#4094A8"/>
<path fill-rule="evenodd" clip-rule="evenodd" d="M145.66 100.224C148.013 101.091 150.36 101.966 152.634 103.037C152.717 103.084 152.817 103.091 152.906 103.055C152.995 103.019 153.062 102.944 153.089 102.852C153.467 100.615 153.718 98.3585 153.841 96.0931C153.865 95.6931 153.247 95.6931 153.223 96.0931C153.104 98.3035 152.859 100.505 152.492 102.688L152.946 102.503C150.628 101.41 148.228 100.514 145.825 99.6281C145.451 99.4911 145.29 100.087 145.66 100.228" fill="#4094A8"/>
<path fill-rule="evenodd" clip-rule="evenodd" d="M149.121 107.766C151.48 108.756 153.893 109.603 156.292 110.486C156.457 110.528 156.624 110.432 156.673 110.27C157.392 108.333 157.853 106.31 158.043 104.253C158.096 103.86 157.477 103.864 157.425 104.253C157.235 106.255 156.782 108.223 156.076 110.106L156.457 109.89C154.057 109.007 151.644 108.159 149.286 107.17C148.92 107.016 148.76 107.614 149.121 107.77" fill="#4094A8"/>
<path fill-rule="evenodd" clip-rule="evenodd" d="M228.899 101.548C224.151 92.6711 209.399 93.5221 205.839 102.862C205.317 104.239 205.115 105.716 205.246 107.183C204.969 109.204 205.304 111.261 206.208 113.09C207.899 116.567 212.008 118.296 215.636 118.657C224.656 119.557 233.65 110.431 228.899 101.549" fill="#FFD066"/>
<path fill-rule="evenodd" clip-rule="evenodd" d="M216.767 108.395C217.614 108.428 218.843 108.305 219.073 107.295C219.136 106.456 218.763 105.644 218.087 105.145C217.373 104.457 216.39 104.121 215.405 104.228C214.226 104.54 213.314 105.476 213.033 106.662C212.497 107.936 212.673 109.397 213.496 110.507C214.362 111.428 215.551 111.978 216.814 112.042C219.849 112.355 222.964 110.753 223.557 107.561C224.296 103.578 220.719 100.261 217.147 99.4151C213.883 98.6451 210.469 99.7041 209 102.894C207.49 106.173 208.27 110.433 210.042 113.462C210.928 115.076 212.444 116.25 214.228 116.705C216.251 117.094 218.337 117.004 220.319 116.443C222.264 116.004 224.034 114.995 225.402 113.543C226.432 112.329 227.1 110.85 227.328 109.274C227.828 106.154 227.006 102.49 224.503 100.386C223.908 99.8895 223.235 99.4969 222.51 99.2251C222.138 99.0831 221.977 99.6811 222.345 99.8251C228 101.979 228.275 111.058 223.614 114.325C222.055 115.354 220.271 115.992 218.414 116.186C216.617 116.535 214.757 116.343 213.069 115.635C211.653 114.819 210.566 113.535 209.995 112.004C209.289 110.398 208.894 108.673 208.831 106.92C208.773 104.102 209.994 101.093 212.841 100.113C216.174 99.1469 219.757 100.353 221.829 103.138C222.892 104.501 223.262 106.281 222.829 107.954C222.423 109.328 221.414 110.444 220.088 110.985C218.188 111.759 215.038 111.807 213.778 109.858C212.72 108.221 213.755 104.499 216.119 104.838C216.909 104.978 217.616 105.416 218.095 106.061C218.42 106.495 218.739 107.208 218.154 107.568C217.721 107.768 217.24 107.842 216.768 107.78C216.368 107.764 216.368 108.38 216.768 108.398" fill="#003849"/>
<path fill-rule="evenodd" clip-rule="evenodd" d="M217.699 85.4341V93.3061C217.699 93.4768 217.923 93.6151 218.199 93.6151C218.475 93.6151 218.699 93.4768 218.699 93.3061V85.4341C218.699 85.2635 218.475 85.1251 218.199 85.1251C217.923 85.1251 217.699 85.2635 217.699 85.4341Z" fill="#003849"/>
<path fill-rule="evenodd" clip-rule="evenodd" d="M208.262 92.4231L210.192 94.3571C210.313 94.4778 210.509 94.4776 210.629 94.3566C210.75 94.2357 210.75 94.0398 210.629 93.9191L208.696 91.9851C208.575 91.8645 208.379 91.8647 208.258 91.9856C208.138 92.1066 208.138 92.3025 208.259 92.4231" fill="#003849"/>
<path fill-rule="evenodd" clip-rule="evenodd" d="M228.287 92.3991L225.939 94.7471C225.831 94.8698 225.836 95.0553 225.952 95.1711C226.067 95.2868 226.253 95.293 226.376 95.1851L228.724 92.8371C228.832 92.7145 228.826 92.5289 228.711 92.4132C228.595 92.2974 228.41 92.2913 228.287 92.3991Z" fill="#003849"/>
<path fill-rule="evenodd" clip-rule="evenodd" d="M198.179 101.754C199.845 102.31 201.554 102.725 203.289 102.997C203.678 103.057 203.846 102.462 203.454 102.397C201.719 102.126 200.01 101.71 198.344 101.154C197.965 101.028 197.803 101.625 198.179 101.754Z" fill="#003849"/>
<path fill-rule="evenodd" clip-rule="evenodd" d="M233.145 103.412C234.845 103.133 236.555 102.981 238.255 102.722C238.647 102.662 238.48 102.067 238.09 102.122C236.39 102.382 234.677 102.533 232.98 102.812C232.589 102.877 232.755 103.472 233.145 103.412Z" fill="#003849"/>
<path fill-rule="evenodd" clip-rule="evenodd" d="M233.338 111.08C234.078 111.08 234.809 111.258 235.548 111.262C235.719 111.261 235.856 111.079 235.856 110.853C235.856 110.628 235.719 110.445 235.548 110.445C234.809 110.445 234.078 110.265 233.338 110.262C233.228 110.262 233.125 110.339 233.07 110.466C233.014 110.593 233.014 110.749 233.07 110.876C233.125 111.002 233.228 111.08 233.338 111.08" fill="#003849"/>
<path fill-rule="evenodd" clip-rule="evenodd" d="M200.609 111.398C201.559 111.421 202.51 111.355 203.453 111.202C203.617 111.141 203.714 110.917 203.669 110.7C203.62 110.487 203.453 110.361 203.289 110.415C202.4 110.553 201.504 110.609 200.609 110.583C200.438 110.583 200.3 110.765 200.3 110.99C200.3 111.216 200.438 111.398 200.609 111.398" fill="#003849"/>
<path fill-rule="evenodd" clip-rule="evenodd" d="M54.0777 10.5941C53.3587 7.35608 50.7536 0.490077 46.6197 0.612078C41.7727 0.758078 43.1717 9.86208 43.4067 12.7361C43.5357 14.3141 46.0066 14.3271 45.8797 12.7361C45.8477 12.3361 45.7187 11.0531 45.6416 9.54608C45.9306 9.74042 46.2974 9.77793 46.6197 9.64608C47.9776 9.16208 49.3847 8.90808 50.7107 8.34608C51.1316 9.28274 51.4607 10.258 51.6936 11.2581C52.0397 12.8141 54.4237 12.1581 54.0777 10.6001M45.9627 7.25808C45.8251 7.30791 45.697 7.3806 45.5837 7.47308C45.5837 5.12708 45.8396 2.93308 46.8497 3.07308C48.0387 3.23808 48.9937 4.91308 49.6267 6.13308C48.4577 6.64708 47.1637 6.83308 45.9627 7.25708" fill="#D67676"/>
<path fill-rule="evenodd" clip-rule="evenodd" d="M121.5 71.657C120.113 72.67 118.567 72.682 117.629 71.103C116.629 69.414 117.855 67.976 119.486 67.487C120.118 67.2842 120.477 66.6193 120.301 65.9795C120.125 65.3398 119.475 64.9527 118.829 65.1021C115.773 66.017 113.865 68.902 115.315 71.992C115.931 73.353 117.141 74.3541 118.593 74.7057C120.045 75.0573 121.578 74.7203 122.749 73.7921C124.024 72.863 122.792 70.715 121.501 71.657" fill="#4094A8"/>
<path fill-rule="evenodd" clip-rule="evenodd" d="M71.7934 50.769C71.34 50.7847 70.9805 51.1568 70.9805 51.6105C70.9805 52.0643 71.34 52.4364 71.7934 52.452C72.2469 52.4364 72.6064 52.0643 72.6064 51.6105C72.6064 51.1568 72.2469 50.7847 71.7934 50.769Z" fill="#4094A8"/>
<path fill-rule="evenodd" clip-rule="evenodd" d="M73.3042 48.2451C72.8508 48.2608 72.4912 48.6329 72.4912 49.0866C72.4912 49.5403 72.8508 49.9125 73.3042 49.9281C73.7576 49.9125 74.1171 49.5403 74.1171 49.0866C74.1171 48.6329 73.7576 48.2608 73.3042 48.2451Z" fill="#4094A8"/>
<path fill-rule="evenodd" clip-rule="evenodd" d="M74.4829 51.1051C74.0294 51.1208 73.6699 51.4929 73.6699 51.9466C73.6699 52.4003 74.0294 52.7725 74.4829 52.7881C74.9363 52.7725 75.2958 52.4003 75.2958 51.9466C75.2958 51.4929 74.9363 51.1208 74.4829 51.1051Z" fill="#4094A8"/>
<path fill-rule="evenodd" clip-rule="evenodd" d="M313.908 82.2701C313.454 82.2858 313.095 82.6579 313.095 83.1116C313.095 83.5654 313.454 83.9375 313.908 83.9531C314.361 83.9374 314.72 83.5653 314.72 83.1116C314.72 82.658 314.361 82.2859 313.908 82.2701Z" fill="#4094A8"/>
<path fill-rule="evenodd" clip-rule="evenodd" d="M315.425 79.7421C314.972 79.7577 314.612 80.1299 314.612 80.5836C314.612 81.0373 314.972 81.4094 315.425 81.4251C315.879 81.4094 316.238 81.0373 316.238 80.5836C316.238 80.1299 315.879 79.7577 315.425 79.7421" fill="#4094A8"/>
<path fill-rule="evenodd" clip-rule="evenodd" d="M316.6 82.6021C316.147 82.6177 315.787 82.9898 315.787 83.4436C315.787 83.8973 316.147 84.2694 316.6 84.285C317.053 84.2694 317.413 83.8973 317.413 83.4436C317.413 82.9898 317.053 82.6177 316.6 82.6021" fill="#4094A8"/>
<g opacity="0.3">
<mask id="mask1_751_20" style="mask-type:luminance" maskUnits="userSpaceOnUse" x="172" y="40" width="49" height="26">
<rect x="172.572" y="40.1261" width="48.029" height="25.043" fill="white"/>
</mask>
<g mask="url(#mask1_751_20)">
<path fill-rule="evenodd" clip-rule="evenodd" d="M206.172 64.7121C197.669 65.3533 189.129 65.3218 180.631 64.6181C170.563 63.7771 169.412 52.3311 180.107 55.8711C174.941 43.3501 185.133 36.7991 192.651 49.3611C193.561 35.2611 211.322 38.2491 207.058 51.9561C212.485 49.0231 222.2 50.8671 220.373 59.5741C219.273 65.2691 210.873 64.7911 206.173 64.7121" fill="#90CCD6"/>
</g>
</g>
</g>
</svg>
