<svg xmlns="http://www.w3.org/2000/svg" xmlns:xlink="http://www.w3.org/1999/xlink" viewBox="0,0,256,256" width="64px" height="64px"><g fill="none" fill-rule="nonzero" stroke="none" stroke-width="1" stroke-linecap="butt" stroke-linejoin="miter" stroke-miterlimit="10" stroke-dasharray="" stroke-dashoffset="0" font-family="none" font-weight="none" font-size="none" text-anchor="none" style="mix-blend-mode: normal"><g transform="scale(4,4)"><path d="M13,20v5h6v-6c0,-6.62742 5.37258,-12 12,-12h2c6.62742,0 12,5.37258 12,12v6h6v-5c0,-10.49341 -8.50659,-19 -19,-19v0c-10.49341,0 -19,8.50659 -19,19z" fill="#8b8aed"></path><path d="M13,20v5h6v-6c0,-6.62742 5.37258,-12 12,-12h2c6.62742,0 12,5.37258 12,12v6h6v-5c0,-10.49341 -8.50659,-19 -19,-19v0c-10.49341,0 -19,8.50659 -19,19z" fill="#8b8aed"></path><path d="M29,1h6v6h-6z" fill="#f5c872"></path><rect x="7" y="25" width="50" height="34" rx="3" ry="3" fill="#c2cde7"></rect><path d="M11,40h42c2.20914,0 4,1.79086 4,4v12c0,1.65685 -1.34315,3 -3,3h-44c-1.65685,0 -3,-1.34315 -3,-3v-12c0,-2.20914 1.79086,-4 4,-4z" fill="#acb7d0"></path><path d="M55,24h-3v-5c0,-10.49341 -8.50659,-19 -19,-19h-2c-10.49341,0 -19,8.50659 -19,19v5h-3c-1.65685,0 -3,1.34315 -3,3v30c0,1.65685 1.34315,3 3,3h46c1.65685,0 3,-1.34315 3,-3v-30c0,-1.65685 -1.34315,-3 -3,-3zM50,19v5h-4v-5c-0.00422,-6.02063 -4.14187,-11.25062 -10,-12.64v-4.08c8.09751,1.45175 13.99361,8.49338 14,16.72zM31,8h2c6.07513,0 11,4.92487 11,11v5h-24v-5c0,-6.07513 4.92487,-11 11,-11zM33,2c0.34,0 0.67,0 1,0.05v4c-0.33,-0.05 -0.66,-0.05 -1,-0.05h-2c-0.34,0 -0.67,0 -1,0.05v-4c0.33,0 0.66,-0.05 1,-0.05zM14,19c0.00639,-8.22662 5.90249,-15.26825 14,-16.72v4.08c-5.85813,1.38938 -9.99578,6.61937 -10,12.64v5h-4zM56,57c0,0.55228 -0.44772,1 -1,1h-46c-0.55228,0 -1,-0.44772 -1,-1v-30c0,-0.55228 0.44772,-1 1,-1h46c0.55228,0 1,0.44772 1,1z" fill="#8d6c9f"></path><path d="M53,54h-4c-0.55228,0 -1,0.44772 -1,1c0,0.55228 0.44772,1 1,1h4c0.55228,0 1,-0.44772 1,-1c0,-0.55228 -0.44772,-1 -1,-1zM45,54h-34c-0.55228,0 -1,0.44772 -1,1c0,0.55228 0.44772,1 1,1h34c0.55228,0 1,-0.44772 1,-1c0,-0.55228 -0.44772,-1 -1,-1zM18,38c-1.10457,0 -2,0.89543 -2,2c0,1.10457 0.89543,2 2,2c1.10457,0 2,-0.89543 2,-2c0,-1.10457 -0.89543,-2 -2,-2zM27,38c-1.10457,0 -2,0.89543 -2,2c0,1.10457 0.89543,2 2,2c1.10457,0 2,-0.89543 2,-2c0,-1.10457 -0.89543,-2 -2,-2zM36,38c-1.10457,0 -2,0.89543 -2,2c0,1.10457 0.89543,2 2,2c1.10457,0 2,-0.89543 2,-2c0,-1.10457 -0.89543,-2 -2,-2zM48.95,48.32c0.17167,-0.52174 -0.1096,-1.08429 -0.63,-1.26l-2.32,-0.78v-5.28h1c0.55228,0 1,-0.44772 1,-1c0,-0.55228 -0.44772,-1 -1,-1h-1v-5.28l2.32,-0.77c0.52467,-0.17397 0.80897,-0.74033 0.635,-1.265c-0.17397,-0.52467 -0.74033,-0.80897 -1.265,-0.635l-2.69,0.9l-2.68,-0.89c-0.52467,-0.17397 -1.09103,0.11033 -1.265,0.635c-0.17397,0.52467 0.11033,1.09103 0.635,1.265l2.32,0.77v5.27h-1.01c-0.55228,0 -1,0.44772 -1,1c0,0.55228 0.44772,1 1,1h1v5.28l-2.32,0.77c-0.52467,0.17397 -0.80897,0.74033 -0.635,1.265c0.17397,0.52467 0.74033,0.80897 1.265,0.635l2.69,-0.9l2.68,0.89c0.25194,0.08555 0.52758,0.06717 0.76593,-0.05106c0.23835,-0.11824 0.41976,-0.32658 0.50407,-0.57894z" fill="#8d6c9f"></path></g></g></svg>