<svg width="135" height="72" viewBox="0 0 135 72" fill="none" xmlns="http://www.w3.org/2000/svg">
<g filter="url(#filter0_d_0_390)">
<path fill-rule="evenodd" clip-rule="evenodd" d="M37.1721 0.125977L24.6891 0.139969C21.0225 0.139969 18.6992 1.97331 17.7191 5.63997L17.4301 6.72597C17.234 7.40584 17.1277 8.10849 17.1141 8.81598C17.1141 11.0886 18.5575 12.225 21.4442 12.225H25.2372C26.5478 12.225 27.2032 12.619 27.2032 13.407C27.2007 13.5797 27.1731 13.7512 27.1212 13.916C26.8278 15.0433 25.9022 15.607 24.3441 15.607H15.0511L13.9102 19.827H27.0802C30.7468 19.827 33.0748 17.9893 34.0641 14.314L34.3531 13.228C34.5407 12.5515 34.6415 11.8539 34.6532 11.152C34.6532 8.8793 33.2098 7.74297 30.3231 7.74297H26.5292C25.2278 7.74297 24.5725 7.34897 24.5632 6.56097C24.5656 6.38823 24.5933 6.21675 24.6452 6.05197C24.9478 4.92464 25.8782 4.36098 27.4362 4.36098H36.0422L37.1721 0.125977ZM55.8372 14.313C54.1232 18.0796 50.2418 19.963 44.1931 19.963C38.4378 19.963 35.5555 18.2583 35.5461 14.849C35.557 14.1321 35.6647 13.42 35.8661 12.732L36.1962 11.454C37.4882 6.6333 41.5575 4.22298 48.4041 4.22298C54.1688 4.22298 57.0511 5.92297 57.0511 9.32297C57.0511 9.49698 57.0465 9.67097 57.0372 9.84497H48.7612C48.8537 9.51086 48.9044 9.16656 48.9122 8.81998C48.9122 7.95331 48.4495 7.51997 47.5242 7.51997C46.2868 7.51997 45.4618 8.29898 45.0492 9.85698L43.8492 14.325C43.7492 14.6551 43.6937 14.9971 43.6842 15.342C43.6842 16.222 44.1468 16.662 45.0722 16.662C46.3095 16.662 47.1388 15.8783 47.5602 14.311L55.8372 14.313ZM73.5161 19.826H66.4911L69.1852 9.82097C69.2865 9.48598 69.3424 9.13887 69.3512 8.78897C69.3512 7.91765 68.8878 7.48198 67.9612 7.48198C66.7138 7.48198 65.8805 8.26631 65.4612 9.83498L62.7772 19.827H55.7312L61.0101 0.126968H68.0491L66.7841 4.88397C68.2307 4.38875 69.7563 4.16499 71.2841 4.22397C74.6841 4.22397 76.3842 5.53897 76.3842 8.16898C76.3687 8.95145 76.2487 9.72833 76.0272 10.479L73.5161 19.826ZM97.3401 12.719C96.0502 17.5483 91.9825 19.963 85.1371 19.963C79.3372 19.963 76.4548 18.2353 76.4901 14.78C76.5091 14.0821 76.6152 13.3894 76.8062 12.718L77.1362 11.453C78.4282 6.63231 82.4975 4.22197 89.3441 4.22197C95.1088 4.22197 97.9911 5.9313 97.9911 9.34998C97.9806 10.061 97.8743 10.7673 97.6752 11.45L97.3401 12.719ZM88.5042 14.332L89.7041 9.86397C89.7959 9.53244 89.8466 9.19087 89.8551 8.84697C89.8551 7.96698 89.3925 7.52698 88.4671 7.52698C87.2298 7.52698 86.4048 8.30597 85.9922 9.86397L84.7921 14.332C84.6922 14.6621 84.6367 15.0041 84.6272 15.349C84.6272 16.229 85.0898 16.669 86.0152 16.669C87.2531 16.6656 88.0828 15.8866 88.5042 14.332ZM118.982 12.719C117.69 17.5483 113.621 19.963 106.774 19.963C100.974 19.963 98.0918 18.2353 98.1272 14.78C98.1461 14.0821 98.2522 13.3894 98.4432 12.7179L98.7731 11.453C100.065 6.63231 104.134 4.22197 110.981 4.22197C116.746 4.22197 119.628 5.9313 119.628 9.34998C119.618 10.061 119.511 10.7673 119.312 11.45L118.982 12.719ZM110.143 14.332L111.343 9.86397C111.435 9.53244 111.486 9.19087 111.494 8.84697C111.494 7.96698 111.031 7.52698 110.106 7.52698C108.869 7.52698 108.044 8.30597 107.631 9.86397L106.431 14.332C106.331 14.6621 106.276 15.0041 106.266 15.349C106.266 16.229 106.729 16.669 107.654 16.669C108.891 16.6656 109.721 15.8866 110.143 14.332ZM125.485 19.832H118.446L123.725 0.131973H130.764L125.485 19.832Z" fill="white"/>
<path fill-rule="evenodd" clip-rule="evenodd" d="M37.1334 63.0939H4.60938L12.0614 35.3329H24.8934L14.0854 27.7329H46.6094L44.5864 35.3329H27.1644L25.4644 41.6249H40.4154L38.3914 49.2009H23.4374L21.7594 55.5189H39.1814L37.1334 63.0939ZM79.9474 63.0939L63.5614 63.0689L57.4414 54.7289L55.1954 63.0939H40.0954L47.5474 35.3329H60.3784L49.5704 27.7329H77.0104C82.1924 27.7329 84.7834 29.7742 84.7834 33.8569C84.76 35.1257 84.5776 36.3865 84.2404 37.6099L83.3764 40.7959C81.5997 47.4299 77.4294 50.7222 70.8654 50.6729L79.9474 63.0939ZM68.7194 39.2079C68.8268 38.8051 68.8849 38.3907 68.8924 37.9739C68.8924 36.2139 67.535 35.3339 64.8204 35.3339H62.6484L60.5484 43.1069H62.7254C66.0141 43.1062 68.012 41.8066 68.7194 39.2079ZM124.71 40.8009C122.95 47.3882 118.78 50.6819 112.199 50.6819H99.8604L96.5254 63.0939H81.4254L88.8774 35.3329H101.709L90.9014 27.7329H118.341C123.523 27.7329 126.114 29.7749 126.114 33.8589C126.091 35.1283 125.909 36.3898 125.571 37.6139L124.71 40.8009ZM110.052 39.2079C110.16 38.8051 110.218 38.3907 110.225 37.9739C110.225 36.2139 108.868 35.3339 106.153 35.3339H103.981L101.881 43.1069H104.053C107.345 43.1062 109.344 41.8066 110.052 39.2079Z" fill="white"/>
</g>
<defs>
<filter id="filter0_d_0_390" x="0.609375" y="0.125977" width="134.154" height="70.9679" filterUnits="userSpaceOnUse" color-interpolation-filters="sRGB">
<feFlood flood-opacity="0" result="BackgroundImageFix"/>
<feColorMatrix in="SourceAlpha" type="matrix" values="0 0 0 0 0 0 0 0 0 0 0 0 0 0 0 0 0 0 127 0" result="hardAlpha"/>
<feOffset dy="4"/>
<feGaussianBlur stdDeviation="2"/>
<feComposite in2="hardAlpha" operator="out"/>
<feColorMatrix type="matrix" values="0 0 0 0 0 0 0 0 0 0 0 0 0 0 0 0 0 0 0.25 0"/>
<feBlend mode="normal" in2="BackgroundImageFix" result="effect1_dropShadow_0_390"/>
<feBlend mode="normal" in="SourceGraphic" in2="effect1_dropShadow_0_390" result="shape"/>
</filter>
</defs>
</svg>
