<svg width="20" height="21" viewBox="0 0 20 21" fill="none" xmlns="http://www.w3.org/2000/svg">
<path fill-rule="evenodd" clip-rule="evenodd" d="M9.94561 0.838014C14.4144 0.835862 18.2622 3.99098 19.1356 8.37355C20.0089 12.7561 17.6645 17.1452 13.5363 18.8563C9.4081 20.5673 4.64614 19.1236 2.16308 15.4082C-0.319954 11.6928 0.167625 6.74077 3.32763 3.58101C5.08273 1.82543 7.46322 0.838777 9.94561 0.838014ZM14.7196 9.69501C15.0021 9.69501 15.2311 9.92403 15.2311 10.2065C15.2311 10.489 15.0021 10.718 14.7196 10.718H9.94561C9.7636 10.716 9.59637 10.6174 9.50661 10.459L9.49963 10.452L9.49163 10.438V10.43L9.48461 10.415L9.47662 10.401V10.393L9.46963 10.378L9.46261 10.371V10.357L9.45562 10.338L9.44863 10.323V10.306V10.292L9.44161 10.285V10.27V10.255V10.238V10.221V10.206V4.10602C9.44161 3.82987 9.66549 3.60602 9.94161 3.60602C10.2205 3.60379 10.4488 3.82718 10.4526 4.10602V9.69501H14.7196ZM15.8496 4.30202C13.033 1.48929 8.62176 1.0578 5.31347 3.27142C2.00518 5.48505 0.721183 9.7273 2.2467 13.4039C3.77218 17.0806 7.68233 19.1677 11.586 18.389C15.4896 17.6103 18.2996 14.1826 18.2976 10.202C18.2987 7.98671 17.4174 5.86354 15.8487 4.30112L15.8496 4.30202Z" fill="white"/>
<path d="M19.1356 8.37355L19.6259 8.27583L19.6259 8.27583L19.1356 8.37355ZM13.5363 18.8563L13.3449 18.3944L13.5363 18.8563ZM2.16308 15.4082L1.74737 15.686L1.74737 15.686L2.16308 15.4082ZM3.32763 3.58101L3.68117 3.93458L3.68123 3.93451L3.32763 3.58101ZM9.94561 10.718L9.94016 11.218H9.94561V10.718ZM9.50661 10.459L9.9416 10.2125L9.90828 10.1537L9.86055 10.1058L9.50661 10.459ZM9.44863 10.292H9.94863V10.0843L9.80142 9.9377L9.44863 10.292ZM9.94161 3.60602V4.10604L9.94561 4.106L9.94161 3.60602ZM10.4526 4.10602H10.9527L10.9526 4.09912L10.4526 4.10602ZM10.4526 9.69501H9.95263V10.195H10.4526V9.69501ZM15.8496 4.30202L15.4988 4.6583L16.2029 3.94822L15.8496 4.30202ZM5.31347 3.27142L5.03541 2.85587L5.31347 3.27142ZM2.2467 13.4039L2.70852 13.2123L2.70852 13.2123L2.2467 13.4039ZM11.586 18.389L11.6838 18.8793H11.6838L11.586 18.389ZM18.2976 10.202L17.7976 10.2018V10.2023L18.2976 10.202ZM15.8487 4.30112L16.1995 3.94484L15.4959 4.65538L15.8487 4.30112ZM9.94585 1.33801C14.176 1.33598 17.8184 4.32266 18.6452 8.47127L19.6259 8.27583C18.7059 3.6593 14.6527 0.335747 9.94537 0.338014L9.94585 1.33801ZM18.6452 8.47127C19.4719 12.6199 17.2527 16.7747 13.3449 18.3944L13.7278 19.3182C18.0763 17.5158 20.5459 12.8924 19.6259 8.27583L18.6452 8.47127ZM13.3449 18.3944C9.43704 20.0141 4.92929 18.6474 2.57879 15.1304L1.74737 15.686C4.36299 19.5998 9.37917 21.1205 13.7278 19.3182L13.3449 18.3944ZM2.57879 15.1304C0.22831 11.6133 0.689861 6.92565 3.68117 3.93458L2.97409 3.22744C-0.354611 6.55589 -0.868218 11.7723 1.74737 15.686L2.57879 15.1304ZM3.68123 3.93451C5.34259 2.27269 7.59595 1.33874 9.94576 1.33801L9.94546 0.338014C7.33048 0.338818 4.82286 1.37816 2.97403 3.22751L3.68123 3.93451ZM14.7196 10.195C14.7221 10.195 14.7233 10.1954 14.7239 10.1957C14.725 10.1961 14.7264 10.197 14.7278 10.1984C14.7292 10.1998 14.73 10.2012 14.7304 10.2022C14.7307 10.2029 14.7311 10.204 14.7311 10.2065H15.7311C15.7311 9.64789 15.2783 9.19501 14.7196 9.19501V10.195ZM14.7311 10.2065C14.7311 10.209 14.7307 10.2102 14.7304 10.2108C14.73 10.2119 14.7292 10.2132 14.7278 10.2146C14.7264 10.2161 14.725 10.2169 14.7239 10.2173C14.7233 10.2176 14.7221 10.218 14.7196 10.218V11.218C15.2783 11.218 15.7311 10.7651 15.7311 10.2065H14.7311ZM14.7196 10.218H9.94561V11.218H14.7196V10.218ZM9.95106 10.218C9.94714 10.218 9.94353 10.2159 9.9416 10.2125L9.07162 10.7056C9.2492 11.0189 9.58006 11.2141 9.94016 11.218L9.95106 10.218ZM9.86055 10.1058L9.85356 10.0988L9.14569 10.8052L9.15268 10.8122L9.86055 10.1058ZM9.93375 10.2039L9.92575 10.19L9.05751 10.6861L9.0655 10.7001L9.93375 10.2039ZM9.99163 10.438V10.43H8.99163V10.438H9.99163ZM9.9445 10.2181L9.93748 10.2031L9.03174 10.6269L9.03876 10.6419L9.9445 10.2181ZM9.91874 10.1669L9.91074 10.153L9.04249 10.6491L9.05049 10.6631L9.91874 10.1669ZM9.97662 10.401V10.393H8.97662V10.401H9.97662ZM9.92992 10.182L9.92293 10.167L9.01632 10.589L9.02331 10.604L9.92992 10.182ZM9.82242 10.0237L9.8154 10.0167L9.10981 10.7253L9.11683 10.7323L9.82242 10.0237ZM9.96261 10.371V10.357H8.96261V10.371H9.96261ZM9.93186 10.1844L9.92487 10.1654L8.98636 10.5106L8.99335 10.5296L9.93186 10.1844ZM9.90884 10.1268L9.90185 10.1118L8.99541 10.5342L9.0024 10.5492L9.90884 10.1268ZM9.94863 10.323V10.306H8.94863V10.323H9.94863ZM9.94863 10.306V10.292H8.94863V10.306H9.94863ZM9.80142 9.9377L9.79441 9.93071L9.08882 10.6393L9.09584 10.6463L9.80142 9.9377ZM9.94161 10.285V10.27H8.94161V10.285H9.94161ZM9.94161 10.27V10.255H8.94161V10.27H9.94161ZM9.94161 10.255V10.238H8.94161V10.255H9.94161ZM9.94161 10.238V10.221H8.94161V10.238H9.94161ZM9.94161 10.221V10.206H8.94161V10.221H9.94161ZM9.94161 10.206V4.10602H8.94161V10.206H9.94161ZM9.94161 4.10602V3.10602C9.38937 3.10602 8.94161 3.5537 8.94161 4.10602H9.94161ZM9.94561 4.106C9.94748 4.10599 9.94803 4.10627 9.94819 4.10633C9.94867 4.10653 9.94957 4.10703 9.95057 4.108C9.95157 4.10898 9.95209 4.10987 9.9523 4.11035C9.95236 4.1105 9.95265 4.11104 9.95268 4.11291L10.9526 4.09912C10.9449 3.5453 10.4915 3.10161 9.93762 3.10604L9.94561 4.106ZM9.95263 4.10602V9.69501H10.9526V4.10602H9.95263ZM10.4526 10.195H14.7196V9.19501H10.4526V10.195ZM16.2029 3.94822C13.2175 0.966944 8.54195 0.509598 5.03541 2.85587L5.59152 3.68698C8.70157 1.606 12.8485 2.01163 15.4963 4.65582L16.2029 3.94822ZM5.03541 2.85587C1.52888 5.20214 0.167944 9.6986 1.78487 13.5956L2.70852 13.2123C1.27442 9.75599 2.48148 5.76796 5.59152 3.68698L5.03541 2.85587ZM1.78487 13.5955C3.40176 17.4925 7.54623 19.7047 11.6838 18.8793L11.4881 17.8987C7.81844 18.6307 4.14259 16.6686 2.70852 13.2123L1.78487 13.5955ZM11.6838 18.8793C15.8214 18.0539 18.7997 14.4208 18.7976 10.2018L17.7976 10.2023C17.7995 13.9443 15.1579 17.1666 11.4881 17.8987L11.6838 18.8793ZM18.7976 10.2023C18.7988 7.85396 17.8645 5.6032 16.2016 3.94686L15.4959 4.65538C16.9702 6.12389 17.7986 8.11946 17.7976 10.2018L18.7976 10.2023ZM15.4979 4.6574L15.4988 4.6583L16.2004 3.94574L16.1995 3.94484L15.4979 4.6574Z" fill="white"/>
</svg>
