<svg width="14" height="16" viewBox="0 0 14 16" fill="none" xmlns="http://www.w3.org/2000/svg">
<path opacity="0.28" fill-rule="evenodd" clip-rule="evenodd" d="M1.97461 7.15608C1.97461 6.38807 1.96063 5.63706 1.97461 4.88706C2.03314 2.45344 3.8338 0.414714 6.24157 0.0560713C8.65088 -0.320302 10.9793 1.09974 11.7476 3.41407C11.9073 4.00117 11.994 4.60572 12.0056 5.21406C12.0476 5.85505 12.0156 6.50206 12.0156 7.12406C12.0746 7.15608 12.0956 7.17805 12.1157 7.17607C13.0666 7.11106 13.4986 7.69605 13.4826 8.62507C13.4496 10.5661 13.4556 12.5081 13.4826 14.4501C13.532 14.8274 13.4034 15.2062 13.1346 15.4755C12.8657 15.7448 12.487 15.8739 12.1097 15.8251C8.69763 15.7918 5.28534 15.7918 1.87262 15.8251C1.49469 15.8725 1.11627 15.7414 0.848569 15.4704C0.58093 15.1994 0.454526 14.8194 0.50665 14.4421C0.537656 12.4771 0.515683 10.5121 0.515683 8.5421C0.515683 7.58409 0.853696 7.2321 1.81561 7.18309C1.8446 7.18507 1.8786 7.17408 1.97461 7.15608ZM4.07464 7.16609H9.8576C9.8656 7.06608 9.87957 6.98509 9.87762 6.9051C9.86358 6.14109 9.89862 5.37211 9.8186 4.61509C9.64605 3.22816 8.47711 2.18086 7.07959 2.16111C5.70831 2.09089 4.48987 3.02928 4.20758 4.37309C4.1087 5.3007 4.06396 6.23329 4.07361 7.16609H4.07464Z" fill="black"/>
</svg>
